<svg width="40" height="40" viewBox="0 0 40 40" fill="none" xmlns="http://www.w3.org/2000/svg">
<rect width="40" height="40" rx="20" fill="#EBFBFE"/>
<path fill-rule="evenodd" clip-rule="evenodd" d="M14.0004 16C14.0004 12.6863 16.6867 10 20.0004 10C23.3141 10 26.0004 12.6863 26.0004 16C26.0004 19.3137 23.3141 22 20.0004 22C16.6867 22 14.0004 19.3137 14.0004 16Z" fill="#0B87AC"/>
<path fill-rule="evenodd" clip-rule="evenodd" d="M9.0021 34.8071C9.10522 28.8208 13.9898 24 20.0004 24C26.0113 24 30.8959 28.821 30.9988 34.8075C31.0056 35.2046 30.7769 35.568 30.416 35.7336C27.2441 37.1891 23.7158 38 20.0009 38C16.2856 38 12.757 37.1889 9.58487 35.7332C9.22398 35.5676 8.99526 35.2041 9.0021 34.8071Z" fill="#0B87AC"/>
<rect x="31.5" y="31.5" width="7" height="7" rx="3.5" fill="#A3A3A3"/>
<rect x="31.5" y="31.5" width="7" height="7" rx="3.5" stroke="#FDFDFD"/>
</svg>
