<svg width="22" height="22" viewBox="0 0 22 22" fill="none" xmlns="http://www.w3.org/2000/svg">
<g clip-path="url(#clip0_302_995)">
<rect width="21.8978" height="21.8978" fill="white"/>
<path d="M10.9489 0C4.90204 0 0 4.90204 0 10.9489C0 16.0835 3.53518 20.3921 8.30409 21.5755V14.2949H6.04642V10.9489H8.30409V9.50715C8.30409 5.78058 9.99066 4.05328 13.6493 4.05328C14.3431 4.05328 15.54 4.18949 16.0296 4.32526V7.3581C15.7712 7.33095 15.3223 7.31737 14.7648 7.31737C12.9696 7.31737 12.2759 7.99752 12.2759 9.76555V10.9489H15.8523L15.2378 14.2949H12.2759V21.8177C17.6974 21.1629 21.8982 16.5469 21.8982 10.9489C21.8978 4.90204 16.9958 0 10.9489 0Z" fill="#1F486B"/>
</g>
<defs>
<clipPath id="clip0_302_995">
<rect width="21.8978" height="21.8978" fill="white"/>
</clipPath>
</defs>
</svg>
