<svg width="23" height="22" viewBox="0 0 23 22" fill="none" xmlns="http://www.w3.org/2000/svg">
<g clip-path="url(#clip0_302_1001)">
<rect width="21.8978" height="21.8978" transform="translate(0.401367)" fill="white"/>
<path d="M11.3503 1.97166C14.2757 1.97166 14.6221 1.98449 15.7726 2.03581C16.8418 2.08286 17.4192 2.26249 17.8041 2.41218C18.3131 2.60892 18.6809 2.84843 19.0616 3.22907C19.4465 3.61399 19.6817 3.97753 19.8784 4.48649C20.0281 4.87141 20.2078 5.45307 20.2548 6.51802C20.3061 7.67279 20.319 8.01922 20.319 10.9404C20.319 13.8658 20.3061 14.2122 20.2548 15.3627C20.2078 16.4319 20.0281 17.0093 19.8784 17.3942C19.6817 17.9032 19.4422 18.271 19.0616 18.6516C18.6766 19.0366 18.3131 19.2718 17.8041 19.4685C17.4192 19.6182 16.8376 19.7978 15.7726 19.8449C14.6178 19.8962 14.2714 19.909 11.3503 19.909C8.42486 19.909 8.07843 19.8962 6.92794 19.8449C5.85871 19.7978 5.28133 19.6182 4.89641 19.4685C4.38745 19.2718 4.01964 19.0323 3.63899 18.6516C3.25407 18.2667 3.01884 17.9032 2.8221 17.3942C2.67241 17.0093 2.49278 16.4276 2.44573 15.3627C2.39441 14.2079 2.38158 13.8615 2.38158 10.9404C2.38158 8.01494 2.39441 7.66851 2.44573 6.51802C2.49278 5.44879 2.67241 4.87141 2.8221 4.48649C3.01884 3.97753 3.25835 3.60972 3.63899 3.22907C4.02392 2.84415 4.38745 2.60892 4.89641 2.41218C5.28133 2.26249 5.86299 2.08286 6.92794 2.03581C8.07843 1.98449 8.42486 1.97166 11.3503 1.97166ZM11.3503 0C8.37782 0 8.00572 0.0128307 6.83813 0.0641537C5.67481 0.115477 4.87502 0.303661 4.18216 0.573107C3.45936 0.855383 2.84776 1.22747 2.24044 1.83907C1.62884 2.4464 1.25675 3.058 0.974474 3.77652C0.705028 4.47365 0.516844 5.26916 0.465521 6.43248C0.414198 7.60436 0.401367 7.97645 0.401367 10.9489C0.401367 13.9214 0.414198 14.2935 0.465521 15.4611C0.516844 16.6244 0.705028 17.4242 0.974474 18.117C1.25675 18.8398 1.62884 19.4514 2.24044 20.0587C2.84776 20.6661 3.45936 21.0424 4.17788 21.3204C4.87502 21.5899 5.67053 21.7781 6.83385 21.8294C8.00145 21.8807 8.37354 21.8935 11.346 21.8935C14.3185 21.8935 14.6905 21.8807 15.8581 21.8294C17.0215 21.7781 17.8212 21.5899 18.5141 21.3204C19.2326 21.0424 19.8442 20.6661 20.4515 20.0587C21.0589 19.4514 21.4352 18.8398 21.7132 18.1213C21.9827 17.4242 22.1709 16.6286 22.2222 15.4653C22.2735 14.2977 22.2863 13.9256 22.2863 10.9532C22.2863 7.98073 22.2735 7.60863 22.2222 6.44104C22.1709 5.27771 21.9827 4.47793 21.7132 3.78507C21.4438 3.05799 21.0717 2.4464 20.4601 1.83907C19.8528 1.23175 19.2412 0.855383 18.5227 0.577384C17.8255 0.307938 17.03 0.119754 15.8667 0.0684307C14.6948 0.0128308 14.3227 0 11.3503 0Z" fill="#1F486B"/>
<path d="M11.3507 5.32477C8.24567 5.32477 5.72656 7.84387 5.72656 10.9489C5.72656 14.054 8.24567 16.5731 11.3507 16.5731C14.4557 16.5731 16.9749 14.054 16.9749 10.9489C16.9749 7.84387 14.4557 5.32477 11.3507 5.32477ZM11.3507 14.5971C9.33628 14.5971 7.7025 12.9633 7.7025 10.9489C7.7025 8.93449 9.33628 7.3007 11.3507 7.3007C13.3651 7.3007 14.9989 8.93449 14.9989 10.9489C14.9989 12.9633 13.3651 14.5971 11.3507 14.5971Z" fill="#1F486B"/>
<path d="M18.5098 5.10232C18.5098 5.8294 17.9196 6.41534 17.1968 6.41534C16.4697 6.41534 15.8838 5.82512 15.8838 5.10232C15.8838 4.37524 16.474 3.78931 17.1968 3.78931C17.9196 3.78931 18.5098 4.37952 18.5098 5.10232Z" fill="#1F486B"/>
</g>
<defs>
<clipPath id="clip0_302_1001">
<rect width="21.8978" height="21.8978" fill="white" transform="translate(0.401367)"/>
</clipPath>
</defs>
</svg>
