<svg width="23" height="22" viewBox="0 0 23 22" fill="none" xmlns="http://www.w3.org/2000/svg">
<g clip-path="url(#clip0_302_998)">
<rect width="21.8978" height="21.8978" transform="translate(0.701172)" fill="white"/>
<path d="M22.3809 6.56938C22.3809 6.56938 22.167 5.05963 21.5084 4.39671C20.6744 3.52422 19.742 3.51994 19.3143 3.46862C16.252 3.24622 11.6544 3.24622 11.6544 3.24622H11.6458C11.6458 3.24622 7.04812 3.24622 3.98584 3.46862C3.55815 3.51994 2.62578 3.52422 1.79179 4.39671C1.13314 5.05963 0.923571 6.56938 0.923571 6.56938C0.923571 6.56938 0.701172 8.3443 0.701172 10.1149V11.7744C0.701172 13.545 0.919295 15.32 0.919295 15.32C0.919295 15.32 1.13314 16.8297 1.78751 17.4926C2.62151 18.3651 3.7164 18.3352 4.20397 18.4293C5.9575 18.5961 11.6501 18.6474 11.6501 18.6474C11.6501 18.6474 16.252 18.6388 19.3143 18.4207C19.742 18.3694 20.6744 18.3651 21.5084 17.4926C22.167 16.8297 22.3809 15.32 22.3809 15.32C22.3809 15.32 22.599 13.5493 22.599 11.7744V10.1149C22.599 8.3443 22.3809 6.56938 22.3809 6.56938ZM9.38759 13.7888V7.63433L15.3026 10.7223L9.38759 13.7888Z" fill="#1F486B"/>
</g>
<defs>
<clipPath id="clip0_302_998">
<rect width="21.8978" height="21.8978" fill="white" transform="translate(0.701172)"/>
</clipPath>
</defs>
</svg>
