<svg width="73" height="30" viewBox="0 0 73 30" fill="none" xmlns="http://www.w3.org/2000/svg">
<circle cx="15" cy="15" r="15" fill="#1F486B"/>
<path d="M17.0312 8L10 15.0312L17.0312 22.0625" stroke="#9DFE01" stroke-width="4.6875" stroke-linecap="round" stroke-linejoin="round"/>
<path d="M39.321 21V10.0909H43.1349C43.8949 10.0909 44.5217 10.2223 45.0153 10.4851C45.5089 10.7443 45.8764 11.0941 46.1179 11.5344C46.3594 11.9712 46.4801 12.456 46.4801 12.9886C46.4801 13.4574 46.3967 13.8445 46.2298 14.1499C46.0664 14.4553 45.8498 14.6967 45.5799 14.8743C45.3136 15.0518 45.0241 15.1832 44.7116 15.2685V15.375C45.0455 15.3963 45.381 15.5135 45.7184 15.7266C46.0558 15.9396 46.3381 16.245 46.5653 16.6428C46.7926 17.0405 46.9062 17.527 46.9062 18.1023C46.9062 18.6491 46.782 19.141 46.5334 19.5778C46.2848 20.0146 45.8924 20.3608 45.3562 20.6165C44.82 20.8722 44.1222 21 43.2628 21H39.321ZM40.642 19.8281H43.2628C44.1257 19.8281 44.7383 19.6612 45.1005 19.3274C45.4663 18.9901 45.6491 18.5817 45.6491 18.1023C45.6491 17.733 45.555 17.392 45.3668 17.0795C45.1786 16.7635 44.9105 16.5114 44.5625 16.3232C44.2145 16.1314 43.8026 16.0355 43.3267 16.0355H40.642V19.8281ZM40.642 14.8849H43.0923C43.4901 14.8849 43.8487 14.8068 44.1683 14.6506C44.4915 14.4943 44.7472 14.2741 44.9354 13.9901C45.1271 13.706 45.223 13.3722 45.223 12.9886C45.223 12.5092 45.0561 12.1026 44.7223 11.7688C44.3885 11.4315 43.8594 11.2628 43.1349 11.2628H40.642V14.8849ZM51.3141 21.1918C50.7956 21.1918 50.3251 21.0941 49.9025 20.8988C49.4799 20.6999 49.1444 20.4141 48.8958 20.0412C48.6472 19.6648 48.5229 19.2102 48.5229 18.6776C48.5229 18.2088 48.6152 17.8288 48.7999 17.5376C48.9846 17.2429 49.2314 17.0121 49.5403 16.8452C49.8493 16.6783 50.1902 16.554 50.563 16.4723C50.9395 16.3871 51.3176 16.3196 51.6976 16.2699C52.1948 16.206 52.5978 16.158 52.9068 16.1261C53.2193 16.0906 53.4466 16.032 53.5886 15.9503C53.7342 15.8686 53.807 15.7266 53.807 15.5241V15.4815C53.807 14.956 53.6632 14.5476 53.3755 14.2564C53.0914 13.9652 52.66 13.8196 52.0811 13.8196C51.481 13.8196 51.0105 13.951 50.6696 14.2138C50.3287 14.4766 50.089 14.7571 49.9505 15.0554L48.7573 14.6293C48.9703 14.1321 49.2544 13.745 49.6096 13.468C49.9682 13.1875 50.3588 12.9922 50.7814 12.8821C51.2076 12.7685 51.6266 12.7116 52.0385 12.7116C52.3013 12.7116 52.6032 12.7436 52.9441 12.8075C53.2885 12.8679 53.6206 12.994 53.9402 13.1857C54.2633 13.3775 54.5314 13.6669 54.7445 14.054C54.9576 14.4411 55.0641 14.9595 55.0641 15.6094V21H53.807V19.892H53.7431C53.6578 20.0696 53.5158 20.2596 53.3169 20.462C53.1181 20.6644 52.8535 20.8366 52.5233 20.9787C52.193 21.1207 51.79 21.1918 51.3141 21.1918ZM51.5059 20.0625C52.003 20.0625 52.4221 19.9648 52.763 19.7695C53.1074 19.5742 53.3667 19.3221 53.5407 19.0131C53.7182 18.7042 53.807 18.3793 53.807 18.0384V16.8878C53.7537 16.9517 53.6365 17.0103 53.4554 17.0636C53.2779 17.1133 53.0719 17.1577 52.8375 17.1967C52.6067 17.2322 52.3812 17.2642 52.161 17.2926C51.9444 17.3175 51.7686 17.3388 51.6337 17.3565C51.307 17.3991 51.0016 17.4684 50.7175 17.5643C50.437 17.6566 50.2097 17.7969 50.0357 17.9851C49.8652 18.1697 49.78 18.4219 49.78 18.7415C49.78 19.1783 49.9416 19.5085 50.2647 19.7322C50.5914 19.9524 51.0051 20.0625 51.5059 20.0625ZM60.6824 21.1705C59.9154 21.1705 59.2549 20.9893 58.7009 20.6271C58.1469 20.2649 57.7208 19.766 57.4225 19.1303C57.1242 18.4947 56.9751 17.7685 56.9751 16.9517C56.9751 16.1207 57.1278 15.3874 57.4331 14.7518C57.7421 14.1126 58.1718 13.6136 58.7222 13.255C59.2762 12.8928 59.9225 12.7116 60.6611 12.7116C61.2364 12.7116 61.7549 12.8182 62.2165 13.0312C62.6782 13.2443 63.0564 13.5426 63.3511 13.9261C63.6459 14.3097 63.8287 14.7571 63.8998 15.2685H62.6427C62.5468 14.8956 62.3337 14.5653 62.0035 14.2777C61.6768 13.9865 61.2364 13.8409 60.6824 13.8409C60.1924 13.8409 59.7627 13.9687 59.3934 14.2244C59.0276 14.4766 58.7417 14.8335 58.5358 15.2951C58.3334 15.7532 58.2322 16.2912 58.2322 16.9091C58.2322 17.5412 58.3316 18.0916 58.5305 18.5604C58.7329 19.0291 59.017 19.3931 59.3827 19.6523C59.752 19.9116 60.1853 20.0412 60.6824 20.0412C61.0091 20.0412 61.3057 19.9844 61.572 19.8707C61.8383 19.7571 62.0638 19.5938 62.2485 19.3807C62.4331 19.1676 62.5645 18.9119 62.6427 18.6136H63.8998C63.8287 19.0966 63.653 19.5316 63.3724 19.9187C63.0954 20.3022 62.7279 20.6076 62.2698 20.8349C61.8153 21.0586 61.2861 21.1705 60.6824 21.1705ZM66.9094 18.017L66.8881 16.4616H67.1437L70.7233 12.8182H72.2787L68.4648 16.6747H68.3582L66.9094 18.017ZM65.7375 21V10.0909H66.9946V21H65.7375ZM70.9363 21L67.7403 16.9517L68.6352 16.0781L72.5344 21H70.9363Z" fill="#1F486B"/>
</svg>
