<svg width="300" height="246" viewBox="0 0 300 246" fill="none" xmlns="http://www.w3.org/2000/svg">
<g clip-path="url(#clip0_213_1465)">
<path opacity="0.33" d="M191.345 54.9396H175.382V169.033C175.382 170.823 174.962 172.596 174.145 174.25C173.328 175.904 172.13 177.406 170.62 178.672C169.11 179.938 167.318 180.942 165.345 181.627C163.373 182.312 161.258 182.665 159.123 182.665H37.085V182.795C37.085 184.585 37.5055 186.358 38.3226 188.012C39.1397 189.666 40.3373 191.168 41.8471 192.434C43.3569 193.7 45.1493 194.704 47.122 195.389C49.0946 196.074 51.2089 196.427 53.344 196.427H191.345C193.48 196.427 195.594 196.074 197.567 195.389C199.539 194.704 201.332 193.7 202.842 192.434C204.351 191.168 205.549 189.666 206.366 188.012C207.183 186.358 207.604 184.585 207.604 182.795V68.5709C207.604 64.9557 205.891 61.4885 202.842 58.9321C199.792 56.3757 195.657 54.9396 191.345 54.9396Z" fill="#1F486B"/>
<path d="M267.013 236.252C267.296 236.263 267.575 236.201 267.814 236.074C268.053 235.947 268.24 235.762 268.349 235.543C268.458 235.324 268.485 235.082 268.425 234.851C268.364 234.619 268.221 234.408 268.013 234.247L267.918 233.932C267.931 233.907 267.943 233.882 267.956 233.857C268.241 233.293 268.718 232.812 269.327 232.475C269.937 232.138 270.651 231.959 271.382 231.961C272.112 231.964 272.825 232.147 273.431 232.488C274.038 232.829 274.511 233.312 274.79 233.878C275.908 236.135 277.331 238.396 277.682 240.782C277.836 241.837 277.771 242.906 277.489 243.943C280.114 239.141 281.478 233.923 281.486 228.641C281.487 227.316 281.399 225.991 281.223 224.674C281.078 223.594 280.877 222.522 280.619 221.458C279.212 215.682 276.19 210.269 271.803 205.662C269.68 204.691 267.963 203.198 266.883 201.383C266.492 200.73 266.216 200.034 266.062 199.315C266.302 199.342 266.966 196.283 266.785 196.096C267.119 195.671 267.716 195.46 268.081 195.046C269.894 192.985 272.392 193.345 273.696 196.145C276.482 197.324 276.509 199.279 274.799 201.159C273.712 202.355 273.562 203.974 272.608 205.254C272.706 205.36 272.809 205.462 272.907 205.567C274.701 207.502 276.265 209.579 277.576 211.769C277.257 209.315 277.638 206.833 278.687 204.527C279.75 202.377 281.742 200.567 283.496 198.709C283.96 198.209 284.59 197.837 285.307 197.638C286.023 197.439 286.794 197.422 287.522 197.59C288.249 197.759 288.901 198.104 289.395 198.583C289.889 199.061 290.202 199.652 290.295 200.28C290.299 200.308 290.302 200.335 290.306 200.362C290.045 200.486 289.79 200.616 289.541 200.755C289.227 200.93 288.984 201.181 288.844 201.475C288.703 201.768 288.672 202.09 288.753 202.399C288.835 202.707 289.026 202.988 289.301 203.204C289.576 203.42 289.922 203.562 290.295 203.61L290.333 203.615C290.24 204.402 290.076 205.182 289.842 205.949C292.093 213.246 287.234 215.903 280.297 216.023C280.144 216.088 279.994 216.154 279.841 216.217C281.158 219.347 281.985 222.607 282.299 225.915C282.477 227.867 282.467 229.828 282.268 231.778L282.28 231.709C282.782 229.54 284.162 227.583 286.187 226.169C289.193 224.098 293.441 223.335 296.685 221.671C297.03 221.485 297.43 221.386 297.84 221.386C298.25 221.385 298.651 221.482 298.997 221.666C299.343 221.85 299.619 222.114 299.792 222.425C299.965 222.736 300.028 223.082 299.975 223.423L299.961 223.496C299.478 223.661 299.007 223.851 298.552 224.065C298.291 224.188 298.036 224.319 297.787 224.458C297.473 224.633 297.23 224.884 297.09 225.177C296.949 225.471 296.918 225.793 296.999 226.101C297.081 226.41 297.272 226.691 297.547 226.907C297.822 227.123 298.168 227.265 298.541 227.313L298.579 227.318C298.607 227.321 298.63 227.324 298.658 227.328C297.832 228.981 296.672 230.504 295.23 231.828C293.823 238.198 287.779 238.802 281.314 236.947H281.31C280.6 239.531 279.573 242.047 278.243 244.453H267.288C267.248 244.351 267.213 244.245 267.178 244.143C268.192 244.197 269.21 244.146 270.209 243.992C269.396 243.156 268.583 242.313 267.771 241.477C267.752 241.461 267.735 241.445 267.72 241.427C267.307 241 266.891 240.575 266.479 240.147L266.478 240.146C266.456 238.835 266.636 237.526 267.013 236.252L267.013 236.252Z" fill="#F2F2F2"/>
<path d="M146.349 39.4197C146.749 39.9277 147.276 40.3569 147.893 40.6774C148.51 40.998 149.203 41.2023 149.924 41.2763C150.645 41.3502 151.376 41.2921 152.067 41.1058C152.759 40.9195 153.393 40.6095 153.928 40.1973L176.704 48.8126L181.096 44.1166L153.954 34.05C153.06 33.3475 151.889 32.9446 150.664 32.9174C149.439 32.8903 148.244 33.2409 147.307 33.9028C146.369 34.5647 145.754 35.4919 145.578 36.5087C145.401 37.5255 145.676 38.5612 146.349 39.4197H146.349Z" fill="#FFCBA5"/>
<path d="M244.097 44.7918L246.356 55.5241C246.461 56.0248 246.441 56.5384 246.295 57.032C246.15 57.5256 245.883 57.9883 245.512 58.3903C245.141 58.7923 244.673 59.1248 244.14 59.3665C243.606 59.6081 243.018 59.7535 242.413 59.7933L204.028 62.3241L158.908 45.3942L164.297 36.8174L203.466 47.2164L244.097 44.7918Z" fill="#6A00BF"/>
<path opacity="0.25" d="M154.26 37.1002H16.2591C7.27944 37.1002 0 43.2032 0 50.7316V164.956C0 172.484 7.27944 178.587 16.2591 178.587H154.26C163.239 178.587 170.519 172.484 170.519 164.956V50.7316C170.519 43.2032 163.239 37.1002 154.26 37.1002Z" fill="#1F486B"/>
<path d="M16.2591 39.9035C14.5631 39.9035 12.8836 40.1835 11.3166 40.7277C9.74966 41.2719 8.32588 42.0695 7.12658 43.0749C5.92727 44.0804 4.97592 45.2741 4.32686 46.5878C3.67781 47.9015 3.34375 49.3096 3.34375 50.7315V164.956C3.34375 167.828 4.70447 170.582 7.12658 172.612C9.54868 174.643 12.8338 175.784 16.2591 175.784H104.334C112.587 175.784 120.758 174.421 128.382 171.774C136.007 169.126 142.934 165.245 148.769 160.353C154.605 155.461 159.233 149.653 162.391 143.261C165.549 136.869 167.175 130.018 167.175 123.099V50.7315C167.175 49.3096 166.841 47.9015 166.192 46.5878C165.543 45.2741 164.591 44.0804 163.392 43.0749C162.193 42.0695 160.769 41.2719 159.202 40.7277C157.635 40.1835 155.956 39.9035 154.259 39.9035H16.2591Z" fill="white"/>
<path opacity="0.33" d="M123.837 74.5686H46.3801C45.6693 74.5686 44.9877 74.3319 44.4851 73.9106C43.9825 73.4892 43.7002 72.9177 43.7002 72.3219C43.7002 71.726 43.9825 71.1545 44.4851 70.7332C44.9877 70.3118 45.6693 70.0751 46.3801 70.0751H123.837C124.548 70.0751 125.229 70.3118 125.732 70.7332C126.234 71.1545 126.517 71.726 126.517 72.3219C126.517 72.9177 126.234 73.4892 125.732 73.9106C125.229 74.3319 124.548 74.5686 123.837 74.5686Z" fill="#9DFE01"/>
<path opacity="0.33" d="M123.837 122.48H46.3801C45.6693 122.48 44.9877 122.243 44.4851 121.822C43.9825 121.401 43.7002 120.829 43.7002 120.233C43.7002 119.637 43.9825 119.066 44.4851 118.645C44.9877 118.223 45.6693 117.987 46.3801 117.987H123.837C124.548 117.987 125.229 118.223 125.732 118.645C126.234 119.066 126.517 119.637 126.517 120.233C126.517 120.829 126.234 121.401 125.732 121.822C125.229 122.243 124.548 122.48 123.837 122.48Z" fill="#9DFE01"/>
<path opacity="0.33" d="M155.291 98.5401H14.9269C14.2162 98.5401 13.5346 98.3033 13.032 97.882C12.5294 97.4607 12.2471 96.8892 12.2471 96.2933C12.2471 95.6974 12.5294 95.1259 13.032 94.7046C13.5346 94.2832 14.2162 94.0465 14.9269 94.0465H155.291C156.002 94.0465 156.683 94.2832 157.186 94.7046C157.688 95.1259 157.971 95.6974 157.971 96.2933C157.971 96.8892 157.688 97.4607 157.186 97.882C156.683 98.3033 156.002 98.5401 155.291 98.5401Z" fill="#9DFE01"/>
<path d="M239.248 92.0956L225.265 117.071L279.054 112.503L267.826 88.5277L239.248 92.0956Z" fill="#FFCBA5"/>
<path d="M251.753 235.643L246.653 235.607L244.396 218.73L251.922 218.784L251.753 235.643Z" fill="#FFCBA5"/>
<path d="M235.417 242.442C235.413 242.949 235.648 243.436 236.072 243.798C236.496 244.159 237.073 244.365 237.678 244.37L247.817 244.441L249.593 241.425L250.245 244.457L254.07 244.486L253.104 233.672L251.773 233.597L246.344 233.283L244.592 233.185L244.562 236.245L236.416 240.877C236.111 241.05 235.861 241.283 235.687 241.556C235.513 241.829 235.42 242.133 235.417 242.442Z" fill="#2F2E41"/>
<path d="M195.314 235.662L190.451 234.371L194.208 217.684L201.384 219.589L195.314 235.662Z" fill="#FFCBA5"/>
<path d="M177.317 238.137C177.135 238.621 177.189 239.145 177.467 239.595C177.746 240.045 178.226 240.384 178.802 240.537L188.469 243.103L191.223 240.657L190.784 243.715L194.431 244.686L197.297 234.111L196.051 233.712L190.971 232.075L189.331 231.549L188.229 234.466L178.82 236.887C178.468 236.978 178.147 237.139 177.885 237.357C177.623 237.575 177.428 237.842 177.317 238.137Z" fill="#2F2E41"/>
<path d="M276.604 105.48L227.697 112.993C227.697 112.993 219.852 117.913 221.95 119.675C224.049 121.436 224.374 121.164 222.996 122.319C221.617 123.475 218.636 125.02 218.607 126.032C218.577 127.043 196.691 172.406 196.691 172.406C196.691 172.406 199.123 171.387 197.299 172.916C195.475 174.445 195.475 175.708 195.475 175.708L186.964 223.886L200.787 224.568L214.322 180.646L244.512 139.613C244.512 139.613 247.508 176.204 247.633 178.637C247.759 181.071 249.583 178.013 247.759 181.071C245.935 184.129 244.719 182.09 245.935 184.129C247.151 186.168 241.555 227.675 241.555 227.675H254.172L281.232 141.643C281.232 141.643 290.859 117.047 276.604 105.48Z" fill="#2F2E41"/>
<path d="M262.197 36.6648L242.606 34.9582L237.53 40.4829L231.617 43.1232C229.115 44.2406 227.05 45.9386 225.668 48.0141C224.286 50.0897 223.647 52.455 223.826 54.8271L230.737 88.5277C230.737 88.5277 224.9 99.5469 228.913 102.29C232.926 105.032 225.81 111.825 234.384 108.406C242.959 104.987 279.981 108.916 279.981 108.916L272.077 90.0568L277.981 71.5255L278.631 55.9872C278.753 53.0837 277.725 50.228 275.708 47.8653C273.691 45.5027 270.799 43.7658 267.482 42.9253L266.656 42.7162L262.197 36.6648Z" fill="#6A00BF"/>
<path d="M289.168 24.0731C289.296 28.7026 287.233 33.1854 284.268 37.1228C283.387 34.8242 281.803 32.7322 280.152 30.7379C280.984 35.0521 280.098 39.4761 277.629 43.3251C277.542 43.3773 277.452 43.4258 277.359 43.4704C274.942 44.6891 271.879 45.1827 269.265 44.3025C274.666 39.4212 275.353 31.3338 270.825 25.8587C269.543 24.3052 267.885 22.9312 267.091 21.1632C265.837 18.3423 267.042 15.2364 267.802 12.2953C268.513 9.55797 268.638 6.30058 266.447 4.29449C266.681 4.01415 267 3.79099 267.371 3.64789C267.741 3.50479 268.151 3.4469 268.557 3.48014C269.907 3.64007 270.89 4.62423 271.517 5.63785C272.143 6.65143 272.556 7.77484 273.428 8.65033C275.044 10.289 277.796 10.6764 280.115 11.54C285.731 13.6372 289.033 18.9216 289.168 24.0731Z" fill="#2F2E41"/>
<path d="M144.48 244.48C144.48 244.56 144.499 244.639 144.535 244.713C144.571 244.786 144.625 244.853 144.692 244.91C144.759 244.966 144.839 245.011 144.927 245.041C145.015 245.071 145.109 245.087 145.204 245.087H299.192C299.384 245.087 299.568 245.023 299.703 244.909C299.839 244.795 299.915 244.641 299.915 244.48C299.915 244.319 299.839 244.165 299.703 244.051C299.568 243.938 299.384 243.874 299.192 243.874H145.204C145.109 243.873 145.015 243.889 144.927 243.919C144.839 243.95 144.759 243.994 144.692 244.051C144.625 244.107 144.571 244.174 144.535 244.248C144.499 244.321 144.48 244.4 144.48 244.48Z" fill="#CCCCCC"/>
<path d="M290.381 131.373C293.403 131.373 295.852 129.319 295.852 126.786C295.852 124.252 293.403 122.199 290.381 122.199C287.359 122.199 284.909 124.252 284.909 126.786C284.909 129.319 287.359 131.373 290.381 131.373Z" fill="#6A00BF"/>
<path d="M241.895 21.4261C242.216 20.4843 240.004 26.2408 241.072 26.3448C245.933 26.8123 252.607 29.2465 255.993 30.3821C256.145 30.3673 256.298 30.3524 256.446 30.3339C256.809 30.3005 257.163 30.2522 257.513 30.1966C265.397 28.9459 268.429 18.7921 268.429 18.6993C268.429 18.2428 267.123 5.70561 265.064 5.52008C264.523 5.47089 263.98 5.44611 263.436 5.44585H258.328C257.271 5.25489 256.199 5.12469 255.121 5.05618H255.112C244.829 4.3993 236.72 9.65428 237.478 16.0486C237.483 16.056 237.491 16.0635 237.496 16.0709C237.716 16.3455 237.909 16.6053 238.079 16.8539C238.245 17.0877 238.384 17.3104 238.505 17.5219C239.442 19.1548 237.033 21.2096 238.631 21.5931C240.755 22.1032 233.042 38.8685 241.453 38.8685C237.362 39.8437 241.01 24.0239 241.895 21.4261Z" fill="#2F2E41"/>
<path d="M251.076 31.2633C257.755 31.2633 263.17 26.7236 263.17 21.1236C263.17 15.5236 257.755 10.9839 251.076 10.9839C244.396 10.9839 238.981 15.5236 238.981 21.1236C238.981 26.7236 244.396 31.2633 251.076 31.2633Z" fill="#FFCBA5"/>
<path d="M237.478 16.6016C237.679 16.6906 237.877 16.7722 238.079 16.8539C238.289 16.9393 238.5 17.0246 238.711 17.1025C242.761 18.6427 246.057 18.8134 248.057 16.6016C248.111 15.4377 248.423 14.2924 248.977 13.2244C248.879 14.418 249.254 15.6052 250.044 16.6016H254.071C258.22 18.9099 260.35 19.1511 257.471 26.7293C256.668 28.8409 253.476 41.1286 254.732 42.9508C255.095 42.9173 258.96 29.4586 259.31 29.4029C267.194 28.1523 272.203 17.2621 271.562 16.6461C271.565 14.8942 271.085 13.1655 270.158 11.5952C268.986 9.60575 267.159 7.93932 264.893 6.79297C263.542 6.24387 262.134 5.80037 260.686 5.46808C260.651 5.46065 260.619 5.45322 260.583 5.44581C260.139 5.3456 259.686 5.25283 259.233 5.17489C258.298 5.00923 257.351 4.88904 256.399 4.81492C256.332 4.8112 256.264 4.80748 256.202 4.80748C255.821 4.80823 255.448 4.89407 255.121 5.05615C255.116 5.05615 255.116 5.05984 255.112 5.05984C254.878 5.17448 254.673 5.32714 254.511 5.50888C254.224 5.81467 254.069 6.1926 254.071 6.58141H249.587C249.421 6.58141 249.255 6.58512 249.089 6.59253C246.095 6.67829 243.248 7.69741 241.104 9.45047C238.96 11.2035 237.673 13.5643 237.495 16.0709C237.482 16.249 237.478 16.4234 237.478 16.6016Z" fill="#2F2E41"/>
<path d="M263.922 13.3602C268.322 13.3602 271.89 10.3694 271.89 6.68008C271.89 2.99077 268.322 0 263.922 0C259.521 0 255.954 2.99077 255.954 6.68008C255.954 10.3694 259.521 13.3602 263.922 13.3602Z" fill="#2F2E41"/>
<path d="M290.442 128.677C290.831 128.163 291.082 127.585 291.177 126.981C291.273 126.378 291.212 125.764 290.997 125.183C290.782 124.601 290.419 124.066 289.933 123.613C289.447 123.161 288.85 122.803 288.182 122.563L288.222 101.614L281.313 100.18L281.483 125.062C281.085 126.034 281.126 127.094 281.599 128.042C282.072 128.99 282.943 129.76 284.047 130.206C285.151 130.652 286.412 130.742 287.591 130.46C288.769 130.179 289.784 129.544 290.442 128.677V128.677Z" fill="#FFCBA5"/>
<path d="M256.229 51.7225L266.98 45.5968C267.481 45.311 268.049 45.1163 268.645 45.0252C269.242 44.9341 269.855 44.9486 270.444 45.0678C271.034 45.187 271.587 45.4082 272.069 45.7172C272.55 46.0263 272.949 46.4163 273.24 46.8623L291.724 75.1804L291.795 116.624L280.255 116.018L275.518 81.802L256.229 51.7225Z" fill="#6A00BF"/>
<path d="M173.658 145.711H58.7553C56.2561 145.711 53.8592 146.543 52.092 148.025C50.3248 149.506 49.332 151.516 49.332 153.611C49.332 155.706 50.3248 157.716 52.092 159.198C53.8592 160.679 56.2561 161.511 58.7553 161.511H173.658C176.157 161.511 178.554 160.679 180.321 159.198C182.088 157.716 183.081 155.706 183.081 153.611C183.081 151.516 182.088 149.506 180.321 148.025C178.554 146.543 176.157 145.711 173.658 145.711Z" fill="#1F486B"/>
<path d="M180.434 180.188H129.727C129.016 180.188 128.334 179.951 127.832 179.53C127.329 179.109 127.047 178.537 127.047 177.941C127.047 177.345 127.329 176.774 127.832 176.353C128.334 175.931 129.016 175.695 129.727 175.695H180.434C181.144 175.695 181.826 175.931 182.329 176.353C182.831 176.774 183.114 177.345 183.114 177.941C183.114 178.537 182.831 179.109 182.329 179.53C181.826 179.951 181.144 180.188 180.434 180.188Z" fill="#1F486B"/>
</g>
<defs>
<clipPath id="clip0_213_1465">
<rect width="300" height="245.087" fill="white"/>
</clipPath>
</defs>
</svg>
