<svg width="321" height="223" viewBox="0 0 321 223" fill="none" xmlns="http://www.w3.org/2000/svg">
<g clip-path="url(#clip0_214_1847)">
<path opacity="0.2" d="M63.9571 223C99.2797 223 127.914 220.828 127.914 218.15C127.914 215.471 99.2797 213.3 63.9571 213.3C28.6346 213.3 0 215.471 0 218.15C0 220.828 28.6346 223 63.9571 223Z" fill="#9DFE01"/>
<path d="M48.8877 49.4798C60.0182 44.7528 73.8813 47.7478 87.4202 49.8264C87.5462 47.3092 89.0733 44.2455 87.4736 42.4894C85.5302 40.3558 85.7091 38.114 86.8786 35.8592C89.8691 30.0936 85.5845 23.9586 81.2583 18.8575C80.2832 17.7103 79.0509 16.8089 77.6614 16.2266C76.2719 15.6443 74.7645 15.3974 73.2615 15.5061L65.2476 16.0776C63.2975 16.2167 61.4365 16.9471 59.9135 18.1712C58.3906 19.3952 57.2783 21.0545 56.7256 22.9269C54.812 25.5255 53.7878 28.1169 54.4327 30.6947C51.5665 32.6505 51.0849 35.0113 52.3729 37.6727C53.465 39.3484 53.4534 40.9796 52.3232 42.5656C50.8389 44.5876 49.7021 46.8422 48.9593 49.237L48.8877 49.4798Z" fill="#2F2E41"/>
<path d="M313.394 192.78H86.5411C84.5237 192.78 82.589 191.98 81.1625 190.555C79.736 189.131 78.9346 187.199 78.9346 185.185C161.169 175.642 241.857 175.642 321 185.185C321 187.199 320.199 189.131 318.772 190.555C317.346 191.98 315.411 192.78 313.394 192.78Z" fill="#2F2E41"/>
<path d="M321 185.632L78.9346 185.185L106.989 138.051L107.123 137.828V33.9498C107.123 32.6889 107.372 31.4404 107.855 30.2755C108.338 29.1106 109.047 28.0522 109.939 27.1606C110.832 26.269 111.892 25.5618 113.059 25.0794C114.226 24.5969 115.476 24.3486 116.739 24.3488H281.854C283.116 24.3486 284.367 24.5969 285.533 25.0794C286.7 25.5618 287.76 26.269 288.653 27.1606C289.546 28.0522 290.254 29.1106 290.737 30.2755C291.221 31.4404 291.469 32.6889 291.469 33.9498V138.542L321 185.632Z" fill="#3F3D56"/>
<path d="M116.52 31.0503C115.689 31.0512 114.893 31.381 114.306 31.9673C113.719 32.5536 113.389 33.3485 113.388 34.1777V128.892C113.389 129.721 113.719 130.516 114.306 131.103C114.893 131.689 115.689 132.019 116.52 132.02H283.415C284.246 132.019 285.042 131.689 285.629 131.103C286.216 130.516 286.546 129.721 286.547 128.892V34.1777C286.546 33.3485 286.216 32.5536 285.629 31.9674C285.042 31.3811 284.246 31.0513 283.415 31.0503H116.52Z" fill="#1F486B"/>
<path d="M117.218 144.529C116.962 144.529 116.711 144.603 116.495 144.741C116.279 144.88 116.106 145.077 115.999 145.309L107.354 164.073C107.26 164.278 107.219 164.502 107.235 164.726C107.25 164.951 107.322 165.167 107.443 165.357C107.565 165.546 107.732 165.702 107.93 165.809C108.127 165.917 108.349 165.974 108.574 165.974H290.362C290.591 165.974 290.816 165.915 291.016 165.804C291.216 165.693 291.384 165.533 291.504 165.338C291.625 165.144 291.693 164.922 291.703 164.694C291.714 164.466 291.665 164.238 291.563 164.034L282.167 145.27C282.056 145.047 281.885 144.859 281.672 144.728C281.46 144.597 281.216 144.528 280.966 144.529H117.218Z" fill="#2F2E41"/>
<path d="M199.296 29.4866C200.408 29.4866 201.309 28.5865 201.309 27.4761C201.309 26.3658 200.408 25.4657 199.296 25.4657C198.184 25.4657 197.282 26.3658 197.282 27.4761C197.282 28.5865 198.184 29.4866 199.296 29.4866Z" fill="#1F486B"/>
<path d="M181.428 169.548C181.133 169.548 180.846 169.646 180.612 169.825C180.377 170.004 180.209 170.255 180.132 170.54L177.963 178.582C177.91 178.78 177.903 178.989 177.943 179.19C177.982 179.392 178.068 179.582 178.194 179.745C178.319 179.909 178.48 180.041 178.665 180.132C178.85 180.223 179.053 180.271 179.259 180.27H220.497C220.711 180.27 220.922 180.219 221.112 180.121C221.302 180.024 221.466 179.882 221.59 179.708C221.714 179.533 221.795 179.332 221.825 179.121C221.856 178.909 221.835 178.694 221.765 178.492L218.977 170.45C218.886 170.187 218.715 169.958 218.487 169.797C218.26 169.635 217.988 169.548 217.709 169.548H181.428Z" fill="#2F2E41"/>
<path d="M291.469 136.264V138.051H106.989L107.128 137.828V136.264H291.469Z" fill="#2F2E41"/>
<path d="M286.324 62.5474C303.622 62.5474 317.645 48.5457 317.645 31.2737C317.645 14.0017 303.622 0 286.324 0C269.026 0 255.003 14.0017 255.003 31.2737C255.003 48.5457 269.026 62.5474 286.324 62.5474Z" fill="#9DFE01"/>
<path d="M299.299 44.9001H273.347C272.873 44.8996 272.418 44.7112 272.082 44.3761C271.747 44.0411 271.558 43.5868 271.558 43.113V27.4762C271.558 27.0023 271.747 26.5481 272.082 26.2131C272.418 25.878 272.873 25.6896 273.347 25.6891H299.299C299.773 25.6896 300.228 25.878 300.564 26.2131C300.899 26.5481 301.088 27.0023 301.089 27.4762V43.113C301.088 43.5868 300.9 44.0411 300.564 44.3761C300.228 44.7112 299.773 44.8996 299.299 44.9001ZM273.347 27.4762V43.113H299.3L299.299 27.4762L273.347 27.4762Z" fill="#1F486B"/>
<path d="M294.377 27.4762H278.27V20.3279C278.27 15.1504 281.657 11.3926 286.323 11.3926C290.99 11.3926 294.377 15.1504 294.377 20.3279L294.377 27.4762ZM280.059 25.6891H292.588V20.3279C292.588 16.1192 290.012 13.1797 286.323 13.1797C282.635 13.1797 280.059 16.1192 280.059 20.3279L280.059 25.6891Z" fill="#1F486B"/>
<path d="M286.323 36.6349C287.311 36.6349 288.113 35.8348 288.113 34.8479C288.113 33.8609 287.311 33.0608 286.323 33.0608C285.335 33.0608 284.533 33.8609 284.533 34.8479C284.533 35.8348 285.335 36.6349 286.323 36.6349Z" fill="#1F486B"/>
<path d="M264.458 99.8934H135.475C134.842 99.8927 134.235 99.6411 133.787 99.194C133.34 98.7469 133.088 98.1407 133.087 97.5084V65.5615C133.088 64.9292 133.34 64.323 133.787 63.8759C134.235 63.4288 134.842 63.1773 135.475 63.1765H264.458C265.092 63.1773 265.699 63.4288 266.146 63.8759C266.594 64.323 266.846 64.9292 266.847 65.5615V97.5084C266.846 98.1407 266.594 98.7469 266.146 99.194C265.699 99.6411 265.092 99.8927 264.458 99.8934ZM135.475 64.1305C135.096 64.1309 134.731 64.2818 134.463 64.5501C134.194 64.8184 134.043 65.1821 134.042 65.5615V97.5084C134.043 97.8878 134.194 98.2516 134.463 98.5198C134.731 98.7881 135.096 98.939 135.475 98.9394H264.458C264.838 98.939 265.203 98.7881 265.471 98.5198C265.74 98.2516 265.891 97.8878 265.891 97.5084V65.5615C265.891 65.1821 265.74 64.8183 265.471 64.5501C265.203 64.2818 264.838 64.1309 264.458 64.1305L135.475 64.1305Z" fill="#9DFE01"/>
<path d="M155.517 90.0242C160.89 90.0242 165.247 85.6746 165.247 80.3091C165.247 74.9436 160.89 70.594 155.517 70.594C150.143 70.594 145.787 74.9436 145.787 80.3091C145.787 85.6746 150.143 90.0242 155.517 90.0242Z" fill="#9DFE01"/>
<path d="M177.988 73.8324C177.775 73.8321 177.564 73.8737 177.367 73.9549C177.17 74.0361 176.991 74.1554 176.84 74.3057C176.689 74.4561 176.57 74.6347 176.488 74.8314C176.406 75.028 176.364 75.2387 176.364 75.4516C176.364 75.6644 176.406 75.8752 176.488 76.0718C176.57 76.2684 176.689 76.447 176.84 76.5974C176.991 76.7478 177.17 76.867 177.367 76.9482C177.564 77.0295 177.775 77.0711 177.988 77.0708H254.437C254.867 77.0708 255.279 76.9002 255.583 76.5965C255.887 76.2928 256.058 75.881 256.058 75.4516C256.058 75.0221 255.887 74.6103 255.583 74.3066C255.279 74.003 254.867 73.8324 254.437 73.8324H177.988Z" fill="#9DFE01"/>
<path d="M177.988 83.5475C177.558 83.5475 177.145 83.7181 176.841 84.0217C176.537 84.3254 176.366 84.7372 176.366 85.1667C176.366 85.5961 176.537 86.008 176.841 86.3116C177.145 86.6153 177.558 86.7859 177.988 86.7859H210.884C211.314 86.7859 211.726 86.6153 212.03 86.3116C212.334 86.008 212.505 85.5961 212.505 85.1667C212.505 84.7372 212.334 84.3254 212.03 84.0217C211.726 83.7181 211.314 83.5475 210.884 83.5475H177.988Z" fill="#9DFE01"/>
<path d="M106.672 84.2025L82.8282 96.8597L82.5264 86.312C90.3087 85.0148 97.7128 82.7563 104.559 79.0794L107.053 72.9277C107.324 72.2574 107.766 71.6691 108.334 71.2207C108.902 70.7723 109.578 70.4791 110.294 70.3699C111.01 70.2608 111.742 70.3394 112.418 70.598C113.094 70.8567 113.692 71.2865 114.151 71.8453C114.824 72.6629 115.16 73.7052 115.092 74.761C115.024 75.8169 114.556 76.8073 113.784 77.5317L106.672 84.2025Z" fill="#FFB8B8"/>
<path d="M48.4121 157.281C48.2381 156.644 48.2012 155.977 48.3037 155.325C48.4062 154.673 48.6458 154.049 49.0068 153.496L54.2446 145.47C55.4834 143.572 57.3843 142.2 59.5785 141.622C61.7727 141.044 64.1036 141.301 66.1191 142.342C63.9179 146.083 64.2247 149.365 66.8794 152.218C62.7584 154.226 58.9496 156.819 55.5711 159.915C54.9543 160.335 54.246 160.602 53.5051 160.693C52.7642 160.784 52.0123 160.697 51.3119 160.439C50.6114 160.182 49.9829 159.76 49.4785 159.211C48.9741 158.662 48.6084 158 48.4121 157.281Z" fill="#2F2E41"/>
<path d="M107.757 146.786C106.965 148.105 105.846 149.199 104.508 149.962C103.171 150.724 101.659 151.131 100.119 151.143L65.3225 151.406L63.8135 142.667L79.2061 138.146L66.228 128.201L80.4133 111.626L106.178 135.604C107.684 137.006 108.663 138.881 108.95 140.916C109.238 142.952 108.816 145.024 107.757 146.786Z" fill="#2F2E41"/>
<path d="M59.8903 206.555H51.7413C44.4246 156.478 36.9769 106.261 58.9849 87.5175L84.941 91.7365L81.6211 113.736L67.1339 130.311L59.8903 206.555Z" fill="#2F2E41"/>
<path d="M67.0538 217.899C66.4158 218.073 65.7483 218.11 65.095 218.008C64.4418 217.905 63.8176 217.666 63.2636 217.306L54.4155 216.118C52.5142 214.881 51.1408 212.983 50.5618 210.792C49.9828 208.602 50.2394 206.274 51.282 204.262C55.029 206.459 58.3161 206.153 61.1725 203.502C63.1907 207.571 66.5161 207.323 69.6919 210.751C70.1124 211.367 70.3795 212.074 70.4708 212.814C70.5622 213.553 70.4752 214.304 70.2171 215.004C69.959 215.703 69.5372 216.331 68.987 216.834C68.4367 217.338 67.7739 217.703 67.0538 217.899Z" fill="#2F2E41"/>
<path d="M79.206 54.0664L64.1152 50.4501C66.6216 45.3275 66.828 39.6276 65.6243 33.5738L75.886 33.2725C76.2076 40.8005 77.1804 47.8336 79.206 54.0664Z" fill="#FFB8B8"/>
<path d="M83.3539 100.81C72.3684 108.285 64.6063 101.066 58.683 89.9284C59.5061 83.1131 58.1733 74.9573 55.705 66.0953C54.6073 62.1865 55.0171 58.0088 56.8536 54.3871C58.6901 50.7653 61.8197 47.9626 65.6247 46.5323L78.6028 51.9569C89.6227 60.9258 91.7917 70.641 87.6573 80.8876L83.3539 100.81Z" fill="#9DFE01"/>
<path d="M51.7407 61.6004L39.6681 67.929L61.097 80.5862L64.0787 87.93C64.2777 88.4202 64.3747 88.9457 64.3637 89.4745C64.3526 90.0032 64.2339 90.5243 64.0146 91.0057C63.7953 91.4872 63.4801 91.919 63.0883 92.2749C62.6964 92.6307 62.236 92.9032 61.7353 93.0756C61.166 93.2716 60.5591 93.3334 59.9619 93.256C59.3648 93.1787 58.7937 92.9644 58.2934 92.6299C57.793 92.2954 57.377 91.8498 57.078 91.328C56.7789 90.8062 56.6049 90.2223 56.5695 89.6221L56.268 84.5039L29.032 75.5296C28.1144 75.2272 27.2777 74.7203 26.5853 74.0473C25.8929 73.3742 25.363 72.5526 25.0356 71.6448C24.5585 70.3215 24.5343 68.8776 24.9666 67.5391C25.3989 66.2005 26.2635 65.0429 27.425 64.2472L49.3262 49.2446L51.7407 61.6004Z" fill="#FFB8B8"/>
<path d="M63.8137 62.8058C58.7786 60.6026 54.2001 62.996 48.4211 64.9154L47.5156 48.9432C53.254 45.8893 58.7252 45.0659 63.8137 47.4364L63.8137 62.8058Z" fill="#9DFE01"/>
<path d="M69.837 41.184C75.1583 41.184 79.4719 36.8768 79.4719 31.5636C79.4719 26.2504 75.1583 21.9432 69.837 21.9432C64.5158 21.9432 60.2021 26.2504 60.2021 31.5636C60.2021 36.8768 64.5158 41.184 69.837 41.184Z" fill="#FFB8B8"/>
<path d="M81.3631 30.3497C71.8238 31.2826 64.5548 29.7248 59.9092 25.2893V21.7173H80.5536L81.3631 30.3497Z" fill="#2F2E41"/>
</g>
<defs>
<clipPath id="clip0_214_1847">
<rect width="321" height="223" fill="white"/>
</clipPath>
</defs>
</svg>
