<svg width="23" height="23" viewBox="0 0 23 23" fill="none" xmlns="http://www.w3.org/2000/svg">
<mask id="mask0_213_1274" style="mask-type:luminance" maskUnits="userSpaceOnUse" x="-1" y="-1" width="25" height="24">
<rect width="23" height="22.7325" fill="white" stroke="white" stroke-width="0.5"/>
</mask>
<g mask="url(#mask0_213_1274)">
<path fill-rule="evenodd" clip-rule="evenodd" d="M20.8973 9.51123H20.1253V9.47192H11.5003V13.2607H16.9163C16.1262 15.4662 14.003 17.0494 11.5003 17.0494C8.32489 17.0494 5.75033 14.5048 5.75033 11.3663C5.75033 8.22779 8.32489 5.68316 11.5003 5.68316C12.9661 5.68316 14.2996 6.22969 15.315 7.12242L18.0256 4.44329C16.314 2.8667 14.0246 1.89441 11.5003 1.89441C6.20793 1.89441 1.91699 6.13545 1.91699 11.3663C1.91699 16.5971 6.20793 20.8382 11.5003 20.8382C16.7927 20.8382 21.0837 16.5971 21.0837 11.3663C21.0837 10.7312 21.0175 10.1113 20.8973 9.51123Z" fill="#FFC107" stroke="white" stroke-width="0.5"/>
<path fill-rule="evenodd" clip-rule="evenodd" d="M3.02148 6.95761L6.17009 9.23986C7.02205 7.15509 9.08534 5.68316 11.4999 5.68316C12.9656 5.68316 14.2992 6.22969 15.3145 7.12242L18.0252 4.44329C16.3136 2.8667 14.0241 1.89441 11.4999 1.89441C7.8189 1.89441 4.62669 3.94839 3.02148 6.95761Z" fill="#FF3D00" stroke="white" stroke-width="0.5"/>
<path fill-rule="evenodd" clip-rule="evenodd" d="M11.4993 20.8382C13.9747 20.8382 16.2239 19.9019 17.9245 18.3793L14.9584 15.8986C13.9963 16.6189 12.8003 17.0494 11.4993 17.0494C9.00671 17.0494 6.89023 15.4785 6.0929 13.2863L2.96777 15.6661C4.55382 18.7335 7.77477 20.8382 11.4993 20.8382Z" fill="#4CAF50" stroke="white" stroke-width="0.5"/>
<path fill-rule="evenodd" clip-rule="evenodd" d="M20.8969 9.51123H20.125V9.47192H11.5V13.2607H16.916C16.5365 14.3201 15.847 15.2337 14.9577 15.8991C14.9581 15.8986 14.9586 15.8986 14.9591 15.8981L17.9251 18.3788C17.7153 18.5673 21.0833 16.1022 21.0833 11.3663C21.0833 10.7312 21.0172 10.1113 20.8969 9.51123Z" fill="#1976D2" stroke="white" stroke-width="0.5"/>
</g>
</svg>
