<svg width="300" height="303" viewBox="0 0 300 303" fill="none" xmlns="http://www.w3.org/2000/svg">
<g clip-path="url(#clip0_214_1642)">
<path d="M150 302.098C232.843 302.098 300 298.159 300 293.299C300 288.44 232.843 284.5 150 284.5C67.1573 284.5 0 288.44 0 293.299C0 298.159 67.1573 302.098 150 302.098Z" fill="#E6E6E6"/>
<path d="M170.044 69.6992H168.43V25.5514C168.43 18.7747 165.735 12.2756 160.936 7.48382C156.138 2.69201 149.63 0 142.845 0H49.1855C42.3997 0 35.8918 2.69201 31.0935 7.48382C26.2953 12.2756 23.5996 18.7747 23.5996 25.5514V267.748C23.5996 274.525 26.2953 281.024 31.0935 285.816C35.8918 290.608 42.3997 293.3 49.1855 293.3H142.845C149.63 293.3 156.138 290.608 160.936 285.816C165.735 281.024 168.43 274.525 168.43 267.748V101.124H170.044V69.6992Z" fill="#1F486B"/>
<path d="M162.985 25.73V267.57C162.985 272.631 160.972 277.484 157.388 281.063C153.805 284.642 148.945 286.652 143.877 286.652H49.7686C44.7011 286.652 39.8411 284.642 36.2578 281.063C32.6745 277.485 30.6614 272.631 30.6611 267.57V25.73C30.6612 20.6691 32.6744 15.8156 36.2578 12.237C39.8412 8.65842 44.7014 6.64794 49.7691 6.64783H61.1858C60.6248 8.02447 60.4111 9.51771 60.5635 10.9962C60.716 12.4747 61.23 13.8931 62.0602 15.1266C62.8904 16.3602 64.0115 17.3711 65.3247 18.0704C66.638 18.7697 68.1032 19.136 69.5915 19.1371H123.248C124.736 19.1361 126.202 18.7698 127.515 18.0705C128.828 17.3713 129.949 16.3604 130.78 15.1268C131.61 13.8932 132.124 12.4748 132.276 10.9963C132.429 9.51778 132.215 8.0245 131.654 6.64783H143.877C148.945 6.64794 153.805 8.65842 157.388 12.237C160.972 15.8156 162.985 20.6691 162.985 25.73Z" fill="white"/>
<path d="M74.1346 208.834H72.1553L72.8161 170.227H73.4769L74.1346 208.834Z" fill="#E6E6E6"/>
<path d="M75.7836 145.92L78.9783 140.99C78.0309 138.377 76.9366 135.819 75.7008 133.328L73.6351 134.995L75.2708 132.47C73.7118 129.406 72.4853 127.475 72.4853 127.475C72.4853 127.475 66.0792 137.557 63.9378 148.234L68.0373 154.561L63.4999 150.9C63.3383 152.144 63.2551 153.396 63.251 154.65C63.251 167.293 67.3858 177.542 72.4862 177.542C77.5867 177.542 81.7215 167.292 81.7215 154.65C81.7215 150.731 80.8334 146.63 79.6069 142.837L75.7836 145.92Z" fill="#CCCCCC"/>
<path d="M125.659 208.834H123.68L124.34 170.227H125.001L125.659 208.834Z" fill="#E6E6E6"/>
<path d="M127.308 145.92L130.503 140.99C129.555 138.377 128.461 135.819 127.225 133.328L125.159 134.995L126.795 132.47C125.236 129.406 124.01 127.475 124.01 127.475C124.01 127.475 117.603 137.558 115.463 148.234L119.56 154.56L115.022 150.899C114.861 152.143 114.778 153.395 114.773 154.649C114.773 167.292 118.908 177.542 124.009 177.542C129.109 177.542 133.244 167.291 133.244 154.649C133.244 150.73 132.356 146.629 131.129 142.836L127.308 145.92Z" fill="#CCCCCC"/>
<path d="M72.6284 80.859C82.6717 80.859 90.8134 72.7283 90.8134 62.6986C90.8134 52.6688 82.6717 44.5381 72.6284 44.5381C62.5851 44.5381 54.4434 52.6688 54.4434 62.6986C54.4434 72.7283 62.5851 80.859 72.6284 80.859Z" fill="#E6E6E6"/>
<path d="M97.816 203.213H93.7354L95.0957 123.609H96.4556L97.816 203.213Z" fill="#E6E6E6"/>
<path d="M101.216 73.4915L107.804 63.3264C105.85 57.9375 103.594 52.663 101.046 47.5279L96.7861 50.9633L100.159 45.758C96.9429 39.4397 94.4156 35.4587 94.4156 35.4587C94.4156 35.4587 81.205 56.2483 76.7914 78.2599L85.242 91.3062L75.8843 83.7582C75.5511 86.3224 75.3797 88.9049 75.3711 91.4905C75.3711 117.56 83.8967 138.693 94.4134 138.693C104.93 138.693 113.456 117.56 113.456 91.4905C113.456 83.4089 111.625 74.9538 109.099 67.1322L101.216 73.4915Z" fill="#CCCCCC"/>
<path d="M162.985 214.687V268.802C162.985 279.778 154.43 288.676 143.877 288.676H49.7685C39.2157 288.676 30.6606 279.779 30.6602 268.802V219.963C46.9765 200.042 70.5672 188.136 95.7095 187.133C120.852 186.13 145.25 196.123 162.985 214.687Z" fill="#E6E6E6"/>
<path opacity="0.2" d="M96.925 268.069C112.303 268.069 124.77 255.619 124.77 240.261C124.77 224.904 112.303 212.454 96.925 212.454C81.5467 212.454 69.0801 224.904 69.0801 240.261C69.0801 255.619 81.5467 268.069 96.925 268.069Z" fill="#1F486B"/>
<path d="M96.9256 262.652C109.308 262.652 119.346 252.627 119.346 240.261C119.346 227.895 109.308 217.871 96.9256 217.871C84.543 217.871 74.5049 227.895 74.5049 240.261C74.5049 252.627 84.543 262.652 96.9256 262.652Z" fill="#9DFE01"/>
<path d="M94.31 249.834L86.4082 239.689L91.0034 236.12L94.7443 240.923L107.383 227.6L111.609 231.598L94.31 249.834Z" fill="white"/>
<path d="M216.073 205.436C224.101 205.436 230.61 198.936 230.61 190.918C230.61 182.9 224.101 176.4 216.073 176.4C208.044 176.4 201.535 182.9 201.535 190.918C201.535 198.936 208.044 205.436 216.073 205.436Z" fill="#1F486B"/>
<path d="M221.964 272.419L223.084 277.695L243.996 275.891L242.343 268.104L221.964 272.419Z" fill="#FFB8B8"/>
<path d="M220.336 288.908L216.817 272.325L223.233 270.967L225.392 281.143C225.571 281.984 225.581 282.853 225.424 283.698C225.266 284.544 224.944 285.35 224.474 286.071C224.005 286.792 223.398 287.414 222.688 287.9C221.978 288.387 221.178 288.729 220.336 288.908Z" fill="#1F486B"/>
<path d="M208.863 272.137L206.509 276.992L186.642 270.236L190.116 263.071L208.863 272.137Z" fill="#FFB8B8"/>
<path d="M203.442 279.792L207.981 270.429L213.884 273.284L206.487 288.54C204.921 287.783 203.721 286.436 203.15 284.795C202.579 283.155 202.684 281.355 203.442 279.792Z" fill="#1F486B"/>
<path d="M169.717 262.55C170.397 262.676 171.097 262.652 171.767 262.479C172.437 262.306 173.061 261.989 173.594 261.55C174.128 261.11 174.559 260.559 174.856 259.935C175.154 259.311 175.311 258.63 175.316 257.939L208.08 227.772L199.943 221.479L170.279 253.129C169.116 253.196 168.018 253.688 167.194 254.51C166.369 255.332 165.876 256.428 165.806 257.59C165.737 258.751 166.097 259.898 166.818 260.812C167.539 261.726 168.571 262.344 169.718 262.549L169.717 262.55Z" fill="#FFB8B8"/>
<path d="M214.249 206.091C220.224 206.091 225.068 201.253 225.068 195.286C225.068 189.318 220.224 184.481 214.249 184.481C208.273 184.481 203.429 189.318 203.429 195.286C203.429 201.253 208.273 206.091 214.249 206.091Z" fill="#FFB8B8"/>
<path d="M223.958 258.801C216.369 258.801 207.228 257.205 201.589 250.672L201.462 250.525L201.594 250.381C201.638 250.334 205.785 245.599 201.643 237.156L195.947 238.906L190.277 231.432L193.418 222.022L206.272 211.684C208.113 210.21 210.355 209.322 212.707 209.135C216.965 208.724 221.112 207.545 224.947 205.654C226.702 204.803 228.635 204.38 230.586 204.422L230.839 204.429C231.432 204.446 232.016 204.583 232.555 204.832C233.094 205.08 233.576 205.436 233.973 205.876C234.37 206.317 234.674 206.833 234.865 207.394C235.056 207.955 235.132 208.549 235.086 209.14C234.214 220.416 232.676 247.653 237.197 257.032L237.314 257.274L237.053 257.34C232.755 258.306 228.364 258.796 223.959 258.8L223.958 258.801Z" fill="#9DFE01"/>
<path d="M203.078 250.529C203.078 250.529 174.443 247.889 171.359 256.248C168.276 264.607 171.8 268.566 177.086 270.326C182.373 272.086 195.148 274.285 195.148 274.285L200.875 267.246L215.853 268.126C215.853 268.126 232.542 277.793 237.157 288.132C238.147 290.369 239.726 292.296 241.725 293.709C243.725 295.122 246.07 295.967 248.512 296.154C252.213 296.411 255.5 295.016 255.5 289.242C255.5 276.044 236.998 257.127 236.998 257.127L203.078 250.529Z" fill="#1F486B"/>
<path d="M181.271 263.507C181.271 263.507 188.76 261.307 200.655 267.026L181.271 263.507Z" fill="#1F486B"/>
<path d="M203.455 188.395C207.681 190.971 212.444 192.538 217.376 192.975L215.908 191.22C216.977 191.614 218.101 191.837 219.239 191.88C219.809 191.896 220.375 191.779 220.891 191.538C221.408 191.296 221.86 190.937 222.213 190.49C222.501 190.025 222.672 189.498 222.711 188.953C222.751 188.408 222.658 187.861 222.44 187.36C221.993 186.36 221.297 185.49 220.418 184.835C218.861 183.605 217.023 182.778 215.069 182.429C213.114 182.08 211.103 182.22 209.215 182.835C207.92 183.221 206.76 183.964 205.867 184.979C205.429 185.49 205.125 186.101 204.981 186.758C204.838 187.416 204.861 188.098 205.047 188.745" fill="#1F486B"/>
<path d="M215.995 179.758C217.918 175.3 220.795 171.317 224.425 168.09C226.757 166.022 229.48 164.243 232.552 163.707C235.623 163.17 239.086 164.089 240.97 166.571C242.512 168.6 242.8 171.319 242.63 173.86C242.46 176.401 241.892 178.919 241.946 181.464C242.001 184.062 242.706 186.605 243.995 188.862C245.284 191.119 247.118 193.019 249.329 194.389C251.54 195.76 254.059 196.556 256.657 196.708C259.254 196.859 261.849 196.36 264.204 195.256C261.552 196.721 259.485 199.04 257.024 200.803C254.563 202.566 251.313 203.777 248.516 202.611C245.557 201.379 244.199 198.028 243.139 195.005L238.411 181.525C237.608 179.234 236.764 176.874 235.124 175.082C233.484 173.291 230.822 172.198 228.565 173.099C226.854 173.781 225.74 175.412 224.763 176.97C223.787 178.528 222.756 180.19 221.107 181.008C219.458 181.826 217.01 181.323 216.471 179.563" fill="#1F486B"/>
<path d="M219.707 258.839C219.521 258.839 219.334 258.828 219.149 258.808C217.917 258.67 216.786 258.066 215.987 257.12C215.188 256.174 214.782 254.959 214.853 253.723C214.923 252.488 215.465 251.327 216.366 250.478C217.268 249.629 218.461 249.157 219.7 249.16C219.916 249.161 220.132 249.177 220.346 249.208L235.138 233.482L233.594 228.342L241.347 224.87L243.521 230.175C244.249 231.973 244.378 233.957 243.889 235.833C243.399 237.709 242.316 239.378 240.802 240.591L224.519 253.525C224.536 253.682 224.545 253.841 224.546 254C224.545 254.68 224.401 255.353 224.123 255.975C223.845 256.596 223.439 257.153 222.932 257.607C222.047 258.404 220.898 258.843 219.707 258.839Z" fill="#FFB8B8"/>
<path d="M231.271 206.535C231.784 206.308 232.338 206.186 232.899 206.177C233.46 206.169 234.018 206.274 234.537 206.485C235.057 206.697 235.528 207.012 235.923 207.41C236.318 207.809 236.628 208.283 236.834 208.804L244.487 228.092L232.593 236.011L231.271 206.535Z" fill="#9DFE01"/>
</g>
<defs>
<clipPath id="clip0_214_1642">
<rect width="300" height="302.098" fill="white"/>
</clipPath>
</defs>
</svg>
