<svg width="380" height="368" viewBox="0 0 380 368" fill="none" xmlns="http://www.w3.org/2000/svg">
<g opacity="0.11" clip-path="url(#clip0_218_2432)">
<path d="M276.723 368C337.075 368 386 363.556 386 358.074C386 352.591 337.075 348.147 276.723 348.147C216.371 348.147 167.446 352.591 167.446 358.074C167.446 363.556 216.371 368 276.723 368Z" fill="white"/>
<path opacity="0.1" d="M276.723 368C337.075 368 386 363.556 386 358.074C386 352.591 337.075 348.147 276.723 348.147C216.371 348.147 167.446 352.591 167.446 358.074C167.446 363.556 216.371 368 276.723 368Z" fill="#191919"/>
<path d="M95.3188 210.461H60.4863V220.438H95.3188V210.461Z" fill="#DEDEDE"/>
<path opacity="0.05" d="M69.7281 210.461H65.1641V220.438H69.7281V210.461Z" fill="#191919"/>
<path d="M90.8684 212.629H71.8906V218.541H90.8684V212.629Z" fill="white"/>
<path d="M123.103 211.762L90.7373 197.847L86.6807 206.989L119.046 220.904L123.103 211.762Z" fill="#DEDEDE"/>
<path opacity="0.05" d="M123.103 211.762L90.7373 197.847L86.6807 206.989L119.046 220.904L123.103 211.762Z" fill="#191919"/>
<path d="M118.757 209.894L114.516 208.07L110.459 217.213L114.7 219.036L118.757 209.894Z" fill="white"/>
<path d="M111.624 209.194L93.9912 201.612L91.5875 207.03L109.221 214.612L111.624 209.194Z" fill="white"/>
<path opacity="0.05" d="M123.164 336.851H114.41V342.606H123.164V336.851Z" fill="#191919"/>
<path opacity="0.05" d="M33.6685 336.851H24.915V342.606H33.6685V336.851Z" fill="#191919"/>
<path d="M131.187 220.906H16.8916V336.657H131.187V220.906Z" fill="#DEDEDE"/>
<path opacity="0.03" d="M131.187 220.906H16.8916V336.657H131.187V220.906Z" fill="#191919"/>
<path d="M152.368 220.906H38.0723V336.657H152.368V220.906Z" fill="#DEDEDE"/>
<path opacity="0.05" d="M144.344 336.851H135.591V342.606H144.344V336.851Z" fill="#191919"/>
<path opacity="0.05" d="M54.8501 336.851H46.0967V342.606H54.8501V336.851Z" fill="#191919"/>
<path opacity="0.7" d="M148.078 226.327H42.3633V248.566H148.078V226.327Z" fill="white"/>
<path opacity="0.7" d="M148.078 254.008H42.3633V276.246H148.078V254.008Z" fill="white"/>
<path opacity="0.7" d="M148.078 281.689H42.3633V303.927H148.078V281.689Z" fill="white"/>
<path opacity="0.05" d="M95.2204 240.558C96.966 240.558 98.3811 239.165 98.3811 237.446C98.3811 235.728 96.966 234.335 95.2204 234.335C93.4747 234.335 92.0596 235.728 92.0596 237.446C92.0596 239.165 93.4747 240.558 95.2204 240.558Z" fill="#191919"/>
<path opacity="0.05" d="M95.2204 268.239C96.966 268.239 98.3811 266.846 98.3811 265.127C98.3811 263.409 96.966 262.016 95.2204 262.016C93.4747 262.016 92.0596 263.409 92.0596 265.127C92.0596 266.846 93.4747 268.239 95.2204 268.239Z" fill="#191919"/>
<path opacity="0.05" d="M95.2204 295.92C96.966 295.92 98.3811 294.527 98.3811 292.809C98.3811 291.09 96.966 289.697 95.2204 289.697C93.4747 289.697 92.0596 291.09 92.0596 292.809C92.0596 294.527 93.4747 295.92 95.2204 295.92Z" fill="#191919"/>
<path opacity="0.7" d="M148.078 309.994H42.3633V332.233H148.078V309.994Z" fill="white"/>
<path opacity="0.05" d="M95.2204 324.225C96.966 324.225 98.3811 322.832 98.3811 321.113C98.3811 319.395 96.966 318.002 95.2204 318.002C93.4747 318.002 92.0596 319.395 92.0596 321.113C92.0596 322.832 93.4747 324.225 95.2204 324.225Z" fill="#191919"/>
<path d="M57.464 106.018L125.048 106.018L125.048 19.4199L57.464 19.4199L57.464 106.018Z" fill="#DEDEDE"/>
<path d="M57.4632 19.4199H55.2725V106.018H57.4632V19.4199Z" fill="#DEDEDE"/>
<path opacity="0.05" d="M57.4632 19.4199H55.2725V106.018H57.4632V19.4199Z" fill="#191919"/>
<path opacity="0.05" d="M69.7763 90.2432H112.737V35.1946L69.7763 35.1946V90.2432Z" fill="#191919"/>
<path opacity="0.03" d="M69.7786 90.2432H72.0156V35.1946H69.7786V90.2432Z" fill="#191919"/>
<path d="M2.19245 182.225H57.4648L57.4648 127.314H2.19245L2.19245 182.225Z" fill="#DEDEDE"/>
<path opacity="0.05" d="M12.2604 172.223H47.3955L47.3955 137.317H12.2604L12.2604 172.223Z" fill="#191919"/>
<path d="M2.19071 127.314H0V182.226H2.19071V127.314Z" fill="#DEDEDE"/>
<path opacity="0.05" d="M2.19071 127.314H0V182.226H2.19071V127.314Z" fill="#191919"/>
<path opacity="0.03" d="M12.2629 172.223H14.5L14.5 137.317H12.2629L12.2629 172.223Z" fill="#191919"/>
<path d="M339.236 19.2137H198.199V158.054H339.236V19.2137Z" fill="#DEDEDE"/>
<path d="M198.197 19.2137H196.582V158.054H198.197V19.2137Z" fill="#DEDEDE"/>
<path opacity="0.05" d="M198.197 19.2137H196.582V158.054H198.197V19.2137Z" fill="#191919"/>
<path opacity="0.05" d="M232.366 114.886V78.5606H262.592V99.6649H309.413V137.032H329.312V158.054H309.413H305.579H204.983V114.886H232.366Z" fill="#191919"/>
<path opacity="0.34" d="M258.712 82.5046H236.701V86.4483H258.712V82.5046Z" fill="#F7F7F7"/>
<path opacity="0.34" d="M258.712 90.6777H236.701V94.6215H258.712V90.6777Z" fill="#F7F7F7"/>
<path opacity="0.34" d="M258.712 98.8509H236.701V102.795H258.712V98.8509Z" fill="#F7F7F7"/>
<path opacity="0.34" d="M212.944 118.714H208.887V122.658H212.944V118.714Z" fill="#F7F7F7"/>
<path opacity="0.34" d="M212.944 126.887H208.887V130.831H212.944V126.887Z" fill="#F7F7F7"/>
<path opacity="0.34" d="M212.944 135.06H208.887V139.004H212.944V135.06Z" fill="#F7F7F7"/>
<path opacity="0.34" d="M220.45 118.714H216.393V122.658H220.45V118.714Z" fill="#F7F7F7"/>
<path opacity="0.34" d="M220.45 126.887H216.393V130.831H220.45V126.887Z" fill="#F7F7F7"/>
<path opacity="0.34" d="M220.45 135.06H216.393V139.004H220.45V135.06Z" fill="#F7F7F7"/>
<path opacity="0.34" d="M227.751 118.714H223.694V122.658H227.751V118.714Z" fill="#F7F7F7"/>
<path opacity="0.34" d="M227.751 126.887H223.694V130.831H227.751V126.887Z" fill="#F7F7F7"/>
<path opacity="0.34" d="M227.751 135.06H223.694V139.004H227.751V135.06Z" fill="#F7F7F7"/>
<path d="M198.199 87.8547H226.578V19.2133H228.925V87.8547H305.579V19.2133H307.926V87.8547H339.236V90.165H307.926V158.054H305.579V90.165H228.925V158.054H226.578V90.165H198.199V87.8547Z" fill="white"/>
<path d="M344.853 157.886H192.58V162.503H344.853V157.886Z" fill="#DEDEDE"/>
<path opacity="0.1" d="M344.853 157.886H192.58V162.503H344.853V157.886Z" fill="#191919"/>
<path opacity="0.1" d="M192.579 157.886H190.382V162.503H192.579V157.886Z" fill="#191919"/>
<path opacity="0.1" d="M192.579 157.886H190.382V162.503H192.579V157.886Z" fill="#191919"/>
<path d="M315.051 181.671C293.459 181.671 275.955 187.47 275.955 194.624V210.043H354.147V194.624C354.147 187.47 336.643 181.671 315.051 181.671Z" fill="#EDF6FF"/>
<path opacity="0.49" d="M315.051 181.671C293.459 181.671 275.955 187.47 275.955 194.624V210.043H354.147V194.624C354.147 187.47 336.643 181.671 315.051 181.671Z" fill="white"/>
<path opacity="0.49" d="M343.496 194.625V210.042H275.954V194.625C275.954 188.069 290.654 182.651 309.725 181.795C328.798 182.651 343.496 188.069 343.496 194.625Z" fill="white"/>
<path d="M354.146 359.869H355.459L354.146 208.675L352.846 209.967L353.773 315.58L307.455 316.355L306.52 209.956L305.219 209.967L306.154 316.376L278.194 316.844L277.255 209.956L275.954 208.686L277.266 359.869L278.556 359.858L278.205 318.125L306.165 317.657L306.52 359.869L307.821 359.858L307.466 317.636L353.784 316.86L354.146 359.869Z" fill="#191919"/>
<path d="M236.22 337.233C236.22 337.233 233.895 349.097 222.61 349.758C211.326 350.42 213.773 359.269 213.773 359.269H256.896V338.06L236.22 337.233Z" fill="#EDF6FF"/>
<path d="M260.824 301.547C260.824 301.547 264.057 313.203 254.228 318.7C244.4 324.197 250.563 331.075 250.563 331.075L289.257 312.335L279.747 293.304L260.824 301.547Z" fill="#EDF6FF"/>
<path d="M256.729 309.251L227.573 200.955C225.362 188.991 228.691 183.805 233.821 178.767C242.835 169.917 280.185 151.079 280.185 151.079L324.993 150.959C336.874 150.959 348.553 162.492 348.553 174.188C348.553 185.883 336.475 195.803 324.594 195.803L269.417 201.224L284.374 300.383L256.729 309.251Z" fill="#191919"/>
<path d="M284.374 300.383L278.485 261.345L248.654 279.259L256.729 309.251L284.374 300.383Z" fill="#191919"/>
<path d="M291.136 172.994C291.136 172.994 272.3 177.126 253.645 195.491C242.334 206.625 243.262 226.775 244.958 265.529L263.486 238.588L283.808 202.507L291.136 172.994Z" fill="#191919"/>
<path d="M356.354 150.947L325.924 150.805L325.912 151.2H316.698C316.698 151.2 293.616 172.107 275.035 185.282C261.518 194.865 253.273 204.001 252.559 213.958C250.82 238.232 231.203 341.753 231.203 341.753L260.726 346.154L286.635 222.438C286.635 222.438 327.145 204.051 336.516 197.654C345.339 191.63 351.572 189.301 354.492 182.726C359.535 171.37 356.354 150.947 356.354 150.947Z" fill="#191919"/>
<path d="M322.215 158.492L272.85 159.136L300.541 175.417L323.583 163.704C324.138 163.41 324.577 162.942 324.83 162.374C325.083 161.805 325.134 161.17 324.977 160.569C324.819 159.969 324.461 159.438 323.96 159.061C323.46 158.684 322.845 158.484 322.215 158.492Z" fill="#191919"/>
<path opacity="0.2" d="M322.215 158.492L272.85 159.136L300.541 175.417L323.583 163.704C324.138 163.41 324.577 162.942 324.83 162.374C325.083 161.805 325.134 161.17 324.977 160.569C324.819 159.969 324.461 159.438 323.96 159.061C323.46 158.684 322.845 158.484 322.215 158.492Z" fill="white"/>
<path d="M273.132 71.3091L259.169 115.846L231.201 151.893L247.538 170.355L280.811 133.797C282.344 132.605 283.543 131.048 284.295 129.272L284.814 128.037L304.032 82.2608L273.132 71.3091Z" fill="#EDF6FF"/>
<path d="M294.641 24.0336C294.641 24.0336 289.015 19.8502 287.621 10.2282C286.542 2.77774 293.523 7.60454 293.523 7.60454C293.523 7.60454 292.799 2.23218 296.775 2.76536C300.752 3.29854 302.976 8.94197 302.976 8.94197" fill="#191919"/>
<path d="M317.325 3.39417C317.325 3.39417 337.053 5.47608 329.922 31.7927L328.176 31.908L324.632 32.1419" fill="#191919"/>
<path d="M297.945 59.2765C298.032 59.2654 298.995 74.9858 317.546 73.6168C330.391 72.6696 334.97 59.2543 335.264 59.2543C333.88 58.9644 332.168 58.5247 331.488 58.374C330.006 58.0354 328.663 57.2604 327.639 56.1523C326.615 55.0441 325.958 53.6553 325.755 52.1705C325.38 49.9422 326.016 38.5409 325.821 36.2861L306.107 40.6182C306.383 45.3805 308.311 56.4202 301.554 58.374C300.428 58.6968 299.217 58.9956 297.945 59.2765Z" fill="#E98862"/>
<path opacity="0.52" d="M305.831 53.8623C306.14 52.8824 306.339 51.8722 306.424 50.8497C306.641 48.5166 306.597 46.1671 306.294 43.8433C310.302 43.3117 314.077 41.684 317.192 39.1454C317.558 40.4764 319.572 46.2923 319.013 47.555C317.96 49.9456 313.009 53.8623 305.831 53.8623Z" fill="#191919"/>
<path d="M309.9 50.7507C317.678 50.0638 326.988 45.2259 327.122 34.8317L327.243 25.453C327.378 15.0592 321.941 6.56379 312 6.43914C302.058 6.31491 294.519 14.6477 294.384 25.042L294.331 29.1938C294.338 30.6198 294.443 32.0436 294.647 33.4554C295.157 37.1907 295.948 42.8695 298.523 46.7111C300.954 50.3379 304.93 51.1891 309.9 50.7507Z" fill="#E98862"/>
<path opacity="0.52" d="M306.292 41.2498C304.687 41.3214 303.087 41.0207 301.621 40.3718C301.561 40.3452 301.515 40.2965 301.491 40.2363C301.467 40.1761 301.468 40.1091 301.494 40.0496C301.519 39.9902 301.568 39.943 301.629 39.9183C301.689 39.8935 301.757 39.8931 301.818 39.9172C304.975 41.2426 307.842 41.0488 310.108 39.3563C310.154 39.3207 310.202 39.2875 310.251 39.2568C310.308 39.2304 310.373 39.2261 310.433 39.2447C310.493 39.2632 310.544 39.3034 310.575 39.3571C310.607 39.4108 310.616 39.4742 310.603 39.5347C310.589 39.5952 310.552 39.6484 310.5 39.6837C310.482 39.6948 310.453 39.7174 310.414 39.7481C309.222 40.6415 307.787 41.1644 306.292 41.2498Z" fill="#191919"/>
<path opacity="0.52" d="M306.365 43.5913C306.075 43.6089 305.784 43.6021 305.495 43.5708C305.462 43.5674 305.43 43.5577 305.401 43.5422C305.372 43.5267 305.347 43.5058 305.326 43.4805C305.306 43.4553 305.29 43.4264 305.281 43.3953C305.271 43.3642 305.268 43.3316 305.272 43.2994C305.275 43.2671 305.285 43.2359 305.301 43.2074C305.317 43.1789 305.338 43.1538 305.364 43.1334C305.389 43.1131 305.419 43.0979 305.45 43.0887C305.482 43.0795 305.515 43.0765 305.548 43.08C307.285 43.2614 308.114 42.4781 308.15 42.4444C308.197 42.398 308.26 42.3719 308.327 42.3718C308.393 42.3718 308.457 42.3977 308.504 42.4439C308.551 42.4902 308.578 42.553 308.578 42.6184C308.578 42.6839 308.552 42.7467 308.505 42.7931C307.906 43.2946 307.15 43.5766 306.365 43.5913Z" fill="#191919"/>
<path d="M297.668 31.1924C298.344 31.1924 298.893 30.6527 298.893 29.9869C298.893 29.3212 298.344 28.7815 297.668 28.7815C296.992 28.7815 296.443 29.3212 296.443 29.9869C296.443 30.6527 296.992 31.1924 297.668 31.1924Z" fill="#191919"/>
<path d="M309.632 30.4534C310.308 30.4534 310.856 29.9137 310.856 29.248C310.856 28.5822 310.308 28.0425 309.632 28.0425C308.956 28.0425 308.407 28.5822 308.407 29.248C308.407 29.9137 308.956 30.4534 309.632 30.4534Z" fill="#191919"/>
<path d="M326.465 37.9941C329.486 38.0321 331.976 34.8805 332.015 31.906C332.055 28.9315 329.626 27.2605 326.604 27.2229L325.022 29.1962L323.868 37.9617L326.465 37.9941Z" fill="#E98862"/>
<path d="M323.458 33.2117C323.458 33.2117 322.438 18.5042 317.908 17.5958C314.89 16.9909 307.574 21.2042 300.796 19.9317C297.831 19.3768 295.017 20.0973 294.73 21.4762C294.617 22.0222 292.77 14.1764 297.413 8.22394C301.11 3.48552 313.207 2.1451 318.711 3.69896C333.95 8.00282 327.226 27.8679 327.226 27.8679L326.546 32.9385L323.458 33.2117Z" fill="#191919"/>
<g opacity="0.52">
<path d="M304.465 37.7788C304.459 37.7792 304.452 37.7792 304.446 37.7788C303.472 37.7694 301.84 37.6461 301.847 36.9294C301.854 36.3352 303.571 29.9395 303.767 29.2122C303.784 29.1496 303.825 29.0961 303.882 29.0636C303.939 29.031 304.007 29.0221 304.07 29.0387C304.134 29.0552 304.188 29.096 304.221 29.152C304.254 29.208 304.263 29.2746 304.246 29.3372C303.483 32.1699 302.347 36.5307 302.343 36.9353C302.437 37.1061 303.443 37.282 304.45 37.2922C304.514 37.2935 304.574 37.3189 304.62 37.3629C304.665 37.407 304.691 37.4665 304.693 37.529C304.695 37.5916 304.672 37.6525 304.63 37.6992C304.587 37.7458 304.528 37.7746 304.465 37.7797V37.7788Z" fill="#191919"/>
</g>
<path d="M301.144 23.4505C300.12 23.1733 299.04 23.1733 298.017 23.4505C297.514 23.5836 297.035 23.7902 296.595 24.0635C296.159 24.3311 295.76 24.6518 295.406 25.0179C295.341 25.0832 295.304 25.1706 295.303 25.2621C295.301 25.3536 295.336 25.4421 295.399 25.5092C295.462 25.5763 295.549 25.6168 295.642 25.6223C295.735 25.6278 295.826 25.5978 295.897 25.5387L295.919 25.5199C296.247 25.2214 296.611 24.9649 297.004 24.7563C297.389 24.5486 297.803 24.3995 298.234 24.314C299.081 24.1392 299.96 24.1876 300.782 24.4545L300.817 24.4664C300.951 24.5091 301.097 24.4985 301.224 24.4367C301.351 24.375 301.448 24.2671 301.495 24.1359C301.542 24.0046 301.535 23.8605 301.476 23.7341C301.417 23.6077 301.31 23.509 301.178 23.459L301.144 23.4505Z" fill="#191919"/>
<path d="M308.388 24.0553C309.167 23.6829 310.032 23.5196 310.895 23.5819C311.333 23.6099 311.764 23.7032 312.174 23.8586C312.59 24.0142 312.986 24.2207 313.35 24.4732L313.374 24.4886C313.452 24.5382 313.547 24.5562 313.638 24.5388C313.729 24.5213 313.81 24.4698 313.864 24.395C313.918 24.3202 313.94 24.2278 313.926 24.1371C313.913 24.0465 313.864 23.9646 313.79 23.9085C313.39 23.592 312.951 23.3265 312.484 23.1184C312.01 22.9053 311.507 22.7634 310.991 22.6975C309.94 22.5564 308.869 22.6976 307.892 23.106C307.827 23.134 307.768 23.1745 307.718 23.225C307.668 23.2756 307.629 23.3353 307.603 23.4007C307.577 23.4661 307.564 23.5359 307.566 23.6062C307.567 23.6765 307.582 23.7459 307.611 23.8103C307.668 23.9405 307.776 24.0429 307.91 24.0949C307.976 24.1207 308.047 24.1333 308.119 24.1321C308.19 24.1309 308.261 24.1158 308.326 24.0878L308.356 24.0737L308.388 24.0553Z" fill="#191919"/>
<path d="M307.893 8.29096C308.581 5.05082 307.325 2.0513 305.089 1.59136C302.853 1.13143 300.483 3.38524 299.795 6.62538C299.107 9.86552 300.363 12.865 302.599 13.325C304.835 13.7849 307.205 11.5311 307.893 8.29096Z" fill="#191919"/>
<path d="M274.894 93.8294C275.478 100.588 279.621 142.755 280.184 151.08H356.32C356.757 143.571 358.721 110.739 360.381 96.0544C361.964 82.0431 364.183 75.6672 362.36 71.3134C359.143 63.6337 348.904 60.2045 341.97 59.2803C337.736 58.716 331.368 58.3117 331.368 58.3117C331.368 58.3117 330.829 69.0492 317.973 69.6468C300.471 70.4579 301.64 58.3117 301.554 58.3117C298.718 58.3117 283.285 60.3415 279.426 62.8175C273.975 66.3145 272.365 71.0807 272.301 75.4593C272.228 80.5021 274.232 86.163 274.894 93.8294Z" fill="#EDF6FF"/>
<path d="M278.755 134.463C278.7 134.463 278.648 134.443 278.608 134.407C278.567 134.371 278.543 134.322 278.538 134.268L275.653 101.791C275.648 101.734 275.666 101.678 275.703 101.635C275.74 101.592 275.793 101.564 275.85 101.559C275.879 101.557 275.907 101.559 275.935 101.568C275.962 101.576 275.987 101.59 276.009 101.608C276.031 101.626 276.049 101.648 276.062 101.673C276.075 101.698 276.083 101.726 276.085 101.754L278.97 134.231C278.975 134.287 278.957 134.343 278.92 134.387C278.883 134.43 278.83 134.457 278.773 134.462C278.767 134.463 278.761 134.463 278.755 134.463Z" fill="#191919"/>
<path d="M284.275 153.328L294.73 144.978L292.97 145.468C292.399 145.615 291.793 145.543 291.274 145.266C290.754 144.99 290.361 144.53 290.173 143.979C290.086 143.691 290.06 143.389 290.096 143.091C290.131 142.793 290.228 142.506 290.38 142.246C290.533 141.986 290.737 141.759 290.981 141.58C291.226 141.4 291.504 141.271 291.801 141.201L313.763 135.943L315.653 142.829C316.24 144.968 316.165 147.231 315.437 149.327C314.709 151.424 313.362 153.259 311.569 154.597L303.431 160.642C303.014 160.964 302.498 161.134 301.968 161.124C301.439 161.114 300.929 160.925 300.526 160.587C300.167 160.275 299.92 159.858 299.819 159.397C299.719 158.936 299.771 158.456 299.968 158.026C299.932 158.016 299.9 157.996 299.876 157.97C299.854 157.944 299.839 157.913 299.832 157.88C299.825 157.847 299.826 157.813 299.836 157.781L298.337 158.898C297.874 159.258 297.289 159.432 296.701 159.384C296.113 159.336 295.565 159.07 295.168 158.639C294.828 158.242 294.64 157.74 294.639 157.22C294.637 156.701 294.822 156.197 295.16 155.799C295.137 155.795 295.114 155.787 295.093 155.776L294.477 156.235C294.061 156.557 293.544 156.727 293.015 156.717C292.485 156.707 291.976 156.518 291.572 156.181C291.137 155.802 290.868 155.272 290.822 154.702C290.776 154.132 290.955 153.567 291.323 153.125C291.314 153.112 291.307 153.099 291.301 153.085L286.948 156.562C286.732 156.734 286.483 156.863 286.217 156.941C285.951 157.019 285.671 157.044 285.395 157.016C285.118 156.988 284.85 156.906 284.606 156.776C284.362 156.645 284.146 156.469 283.971 156.257C283.796 156.044 283.665 155.8 283.586 155.537C283.507 155.275 283.481 155 283.509 154.728C283.538 154.456 283.621 154.192 283.754 153.952C283.886 153.711 284.065 153.499 284.281 153.326L284.275 153.328Z" fill="#E98862"/>
<path opacity="0.2" d="M291.561 153.209C291.584 153.201 291.606 153.189 291.625 153.174L295.813 149.748C295.835 149.731 295.852 149.709 295.865 149.685C295.878 149.661 295.886 149.635 295.888 149.607C295.891 149.58 295.888 149.553 295.88 149.527C295.872 149.501 295.858 149.477 295.841 149.456C295.823 149.435 295.801 149.418 295.777 149.405C295.752 149.392 295.725 149.384 295.698 149.382C295.67 149.379 295.642 149.382 295.616 149.39C295.59 149.399 295.565 149.412 295.544 149.429L291.355 152.854C291.317 152.885 291.291 152.929 291.283 152.977C291.274 153.025 291.282 153.074 291.307 153.117C291.332 153.159 291.371 153.191 291.417 153.208C291.464 153.225 291.515 153.225 291.561 153.209Z" fill="#191919"/>
<path opacity="0.2" d="M295.253 155.796C295.276 155.788 295.297 155.777 295.315 155.762L298.629 153.095C298.672 153.06 298.699 153.01 298.705 152.955C298.711 152.9 298.694 152.845 298.658 152.803C298.623 152.76 298.572 152.733 298.516 152.728C298.461 152.722 298.405 152.739 298.362 152.773L295.048 155.44C295.01 155.471 294.984 155.515 294.974 155.563C294.965 155.611 294.974 155.661 294.998 155.703C295.023 155.746 295.062 155.779 295.108 155.796C295.155 155.813 295.206 155.813 295.253 155.796Z" fill="#191919"/>
<path opacity="0.2" d="M300.102 158.033C300.126 158.024 300.149 158.011 300.169 157.995L301.702 156.699C301.723 156.682 301.74 156.66 301.753 156.636C301.765 156.612 301.773 156.585 301.775 156.558C301.777 156.531 301.774 156.504 301.765 156.478C301.756 156.452 301.743 156.428 301.725 156.407C301.707 156.387 301.685 156.37 301.66 156.357C301.636 156.345 301.609 156.338 301.581 156.335C301.554 156.333 301.526 156.337 301.5 156.345C301.473 156.354 301.449 156.367 301.428 156.385L299.894 157.68C299.857 157.712 299.832 157.755 299.824 157.803C299.816 157.851 299.825 157.9 299.85 157.942C299.874 157.983 299.913 158.015 299.959 158.032C300.005 158.049 300.056 158.049 300.102 158.033Z" fill="#191919"/>
<path d="M376.671 132.877L376.591 132.527L362.694 72.019L335.202 78.1371L346.048 125.367L302.599 135.878L307.946 160.013L365.848 149.141C365.978 149.116 366.171 149.077 366.303 149.048C368.062 148.656 369.726 147.928 371.199 146.903C372.673 145.878 373.926 144.578 374.889 143.077C375.852 141.575 376.505 139.901 376.811 138.151C377.117 136.401 377.069 134.609 376.671 132.877Z" fill="#EDF6FF"/>
<path d="M302.386 135.923C302.375 135.869 302.385 135.813 302.415 135.766C302.445 135.719 302.492 135.686 302.547 135.672L345.803 125.214L338.77 94.6332C338.762 94.6054 338.76 94.5762 338.764 94.5476C338.768 94.5189 338.777 94.4913 338.793 94.4664C338.808 94.4416 338.828 94.42 338.851 94.403C338.875 94.386 338.902 94.374 338.931 94.3676C338.959 94.3612 338.989 94.3605 339.018 94.3658C339.047 94.371 339.074 94.382 339.099 94.398C339.123 94.414 339.144 94.4348 339.16 94.459C339.176 94.4832 339.187 94.5104 339.192 94.5389L346.273 125.324C346.286 125.379 346.276 125.436 346.247 125.484C346.217 125.532 346.169 125.567 346.113 125.58L302.854 136.039C302.854 136.039 303.144 137.283 303.226 137.703C303.232 137.758 303.216 137.813 303.181 137.856C303.147 137.899 303.096 137.927 303.04 137.934C302.985 137.94 302.929 137.924 302.885 137.89C302.841 137.856 302.813 137.806 302.807 137.751C302.707 137.291 302.386 135.923 302.386 135.923Z" fill="#191919"/>
<path d="M304.082 169.626L287.376 119.073C287.083 118.184 286.511 117.41 285.743 116.861C284.975 116.312 284.051 116.017 283.102 116.017H215.041C214.331 116.017 213.632 116.182 213 116.499C212.368 116.816 211.821 117.276 211.404 117.841C210.987 118.406 210.712 119.061 210.601 119.751C210.49 120.44 210.547 121.146 210.766 121.81L227.473 172.364C227.766 173.252 228.338 174.026 229.106 174.575C229.874 175.124 230.798 175.42 231.747 175.42H299.808C300.517 175.42 301.216 175.254 301.848 174.937C302.481 174.62 303.027 174.16 303.444 173.595C303.861 173.03 304.136 172.376 304.247 171.686C304.358 170.996 304.301 170.29 304.082 169.626Z" fill="#191919"/>
<path opacity="0.2" d="M304.082 169.626L287.376 119.073C287.083 118.184 286.511 117.41 285.743 116.861C284.975 116.312 284.051 116.017 283.102 116.017H215.041C214.331 116.017 213.632 116.182 213 116.499C212.368 116.816 211.821 117.276 211.404 117.841C210.987 118.406 210.712 119.061 210.601 119.751C210.49 120.44 210.547 121.146 210.766 121.81L227.473 172.364C227.766 173.252 228.338 174.026 229.106 174.575C229.874 175.124 230.798 175.42 231.747 175.42H299.808C300.517 175.42 301.216 175.254 301.848 174.937C302.481 174.62 303.027 174.16 303.444 173.595C303.861 173.03 304.136 172.376 304.247 171.686C304.358 170.996 304.301 170.29 304.082 169.626Z" fill="white"/>
<path d="M255.463 152.745C259.406 152.745 262.601 149.599 262.601 145.718C262.601 141.837 259.406 138.691 255.463 138.691C251.521 138.691 248.325 141.837 248.325 145.718C248.325 149.599 251.521 152.745 255.463 152.745Z" fill="white"/>
<path d="M188.267 5.34204H53.183C46.9248 5.34204 41.8516 10.3363 41.8516 16.497V177.932C41.8516 184.093 46.9248 189.087 53.183 189.087H188.267C194.525 189.087 199.598 184.093 199.598 177.932V16.497C199.598 10.3363 194.525 5.34204 188.267 5.34204Z" fill="#191919"/>
<path d="M193.26 0.426861H58.1761C51.918 0.426861 46.8447 5.4211 46.8447 11.5818V173.017C46.8447 179.178 51.918 184.172 58.1761 184.172H193.26C199.518 184.172 204.591 179.178 204.591 173.017V11.5818C204.591 5.4211 199.518 0.426861 193.26 0.426861Z" fill="white"/>
<path d="M193.26 184.599H58.1762C55.0569 184.596 52.0663 183.374 49.8607 181.203C47.655 179.031 46.4145 176.087 46.4111 173.017V11.5818C46.4146 8.51118 47.6552 5.56726 49.8608 3.39598C52.0665 1.2247 55.0569 0.00338974 58.1762 0L193.26 0C196.379 0.00350271 199.37 1.22487 201.575 3.39613C203.781 5.5674 205.021 8.51125 205.025 11.5818V173.017C205.021 176.087 203.781 179.031 201.575 181.203C199.37 183.374 196.379 184.595 193.26 184.599ZM58.1762 0.853771C55.2869 0.856935 52.5169 1.98822 50.4738 3.99944C48.4308 6.01066 47.2816 8.73754 47.2784 11.5818V173.017C47.2816 175.861 48.4308 178.588 50.4738 180.599C52.5169 182.61 55.2869 183.742 58.1762 183.745H193.26C196.149 183.742 198.919 182.61 200.962 180.599C203.005 178.588 204.154 175.861 204.157 173.017V11.5818C204.154 8.73758 203.005 6.01069 200.962 3.99947C198.919 1.98824 196.149 0.856935 193.26 0.853771H58.1762Z" fill="#191919"/>
<path d="M45.0247 207.272C60.5622 207.272 73.1579 194.872 73.1579 179.577C73.1579 164.281 60.5622 151.882 45.0247 151.882C29.4872 151.882 16.8916 164.281 16.8916 179.577C16.8916 194.872 29.4872 207.272 45.0247 207.272Z" fill="#191919"/>
<path d="M39.1839 175.962C38.8135 175.962 38.4583 175.817 38.1964 175.56C37.9344 175.302 37.7872 174.952 37.7871 174.588V167.932C37.7871 164.252 41.0338 161.257 45.0241 161.257C49.0144 161.257 52.2611 164.252 52.2611 167.932V174.131C52.2644 174.313 52.2306 174.495 52.1619 174.664C52.0932 174.834 51.9909 174.988 51.8609 175.119C51.7309 175.249 51.5758 175.352 51.4047 175.423C51.2337 175.494 51.05 175.53 50.8646 175.53C50.6791 175.53 50.4954 175.494 50.3244 175.423C50.1533 175.352 49.9982 175.249 49.8682 175.119C49.7382 174.988 49.6359 174.834 49.5672 174.664C49.4985 174.495 49.4648 174.313 49.468 174.131V167.932C49.468 165.768 47.4733 164.007 45.0241 164.007C42.5749 164.007 40.5802 165.768 40.5802 167.932V174.588C40.5799 174.953 40.4327 175.302 40.1709 175.56C39.9091 175.817 39.554 175.962 39.1839 175.962Z" fill="white"/>
<path d="M53.934 173.437H36.115C35.0758 173.437 34.2334 174.266 34.2334 175.289V191.812C34.2334 192.835 35.0758 193.665 36.115 193.665H53.934C54.9732 193.665 55.8156 192.835 55.8156 191.812V175.289C55.8156 174.266 54.9732 173.437 53.934 173.437Z" fill="white"/>
<path d="M43.2502 181.915C43.2501 182.243 43.3435 182.564 43.5198 182.842C43.6962 183.12 43.9484 183.343 44.2476 183.487V186.17C44.2476 186.372 44.3292 186.566 44.4744 186.709C44.6197 186.852 44.8167 186.932 45.0221 186.932C45.2275 186.932 45.4245 186.852 45.5697 186.709C45.7149 186.566 45.7965 186.372 45.7965 186.17V183.487C46.0815 183.351 46.3243 183.142 46.4996 182.882C46.6749 182.622 46.7764 182.321 46.7935 182.01C46.8106 181.698 46.7426 181.388 46.5968 181.111C46.4509 180.835 46.2324 180.601 45.9639 180.436C45.6955 180.27 45.3869 180.178 45.0702 180.17C44.7536 180.162 44.4404 180.237 44.1632 180.388C43.886 180.539 43.655 180.76 43.494 181.028C43.3331 181.297 43.2482 181.603 43.248 181.915H43.2502Z" fill="#191919"/>
<path d="M181.464 92.1103H69.9723C67.3109 92.1103 65.1533 94.2343 65.1533 96.8543V112.241C65.1533 114.861 67.3109 116.985 69.9723 116.985H181.464C184.125 116.985 186.283 114.861 186.283 112.241V96.8543C186.283 94.2343 184.125 92.1103 181.464 92.1103Z" fill="white"/>
<path d="M181.463 117.411H69.9724C68.5798 117.41 67.2447 116.865 66.26 115.895C65.2753 114.926 64.7213 113.611 64.7197 112.241V96.8543C64.7213 95.4834 65.2752 94.169 66.2599 93.1996C67.2446 92.2301 68.5798 91.6847 69.9724 91.683H181.463C182.856 91.6846 184.191 92.23 185.176 93.1994C186.161 94.1689 186.715 95.4833 186.716 96.8543V112.241C186.715 113.612 186.161 114.926 185.176 115.895C184.191 116.865 182.856 117.41 181.463 117.411ZM69.9724 92.5368C68.8096 92.5381 67.6949 92.9933 66.8727 93.8028C66.0505 94.6122 65.5882 95.7097 65.587 96.8543V112.241C65.5883 113.385 66.0507 114.482 66.8729 115.292C67.695 116.101 68.8097 116.556 69.9724 116.558H181.463C182.626 116.556 183.741 116.101 184.563 115.292C185.385 114.483 185.848 113.385 185.849 112.241V96.8543C185.848 95.7096 185.385 94.6122 184.563 93.8028C183.741 92.9933 182.626 92.5381 181.463 92.5368H69.9724Z" fill="#191919"/>
<path d="M181.464 127.659H69.9723C67.3109 127.659 65.1533 129.783 65.1533 132.403V147.789C65.1533 150.409 67.3109 152.533 69.9723 152.533H181.464C184.125 152.533 186.283 150.409 186.283 147.789V132.403C186.283 129.783 184.125 127.659 181.464 127.659Z" fill="white"/>
<path d="M181.463 152.96H69.9724C68.5796 152.958 67.2443 152.413 66.2595 151.443C65.2748 150.474 64.721 149.159 64.7197 147.788V132.403C64.7213 131.032 65.2753 129.718 66.26 128.748C67.2447 127.779 68.5798 127.234 69.9724 127.232H181.463C182.856 127.233 184.191 127.779 185.176 128.748C186.161 129.717 186.715 131.032 186.716 132.403V147.788C186.715 149.159 186.161 150.474 185.177 151.443C184.192 152.413 182.856 152.958 181.463 152.96ZM69.9724 128.086C68.8097 128.087 67.695 128.542 66.8729 129.352C66.0507 130.161 65.5883 131.258 65.587 132.403V147.788C65.5883 148.932 66.0507 150.03 66.8729 150.839C67.695 151.648 68.8097 152.104 69.9724 152.105H181.463C182.626 152.104 183.741 151.649 184.563 150.839C185.385 150.03 185.848 148.932 185.849 147.788V132.403C185.848 131.258 185.385 130.161 184.563 129.351C183.741 128.542 182.626 128.087 181.463 128.086H69.9724Z" fill="#191919"/>
<path d="M125.718 73.6078C140.014 73.6078 151.603 62.1989 151.603 48.1253C151.603 34.0517 140.014 22.6428 125.718 22.6428C111.421 22.6428 99.832 34.0517 99.832 48.1253C99.832 62.1989 111.421 73.6078 125.718 73.6078Z" fill="white"/>
<path d="M125.718 74.0347C120.512 74.0347 115.424 72.5152 111.095 69.6682C106.767 66.8213 103.394 62.7748 101.402 58.0405C99.4098 53.3061 98.8886 48.0966 99.9042 43.0707C100.92 38.0448 103.426 33.4282 107.107 29.8047C110.788 26.1812 115.478 23.7135 120.583 22.7138C125.688 21.7141 130.98 22.2272 135.79 24.1882C140.599 26.1492 144.709 29.4701 147.601 33.7309C150.493 37.9917 152.037 43.001 152.037 48.1254C152.029 54.9946 149.254 61.5803 144.32 66.4376C139.385 71.2949 132.696 74.0271 125.718 74.0347ZM125.718 23.0697C120.684 23.0697 115.763 24.5392 111.577 27.2924C107.392 30.0455 104.13 33.9587 102.203 38.537C100.277 43.1153 99.7727 48.1532 100.755 53.0135C101.737 57.8738 104.161 62.3383 107.72 65.8424C111.28 69.3464 115.815 71.7328 120.752 72.6995C125.689 73.6663 130.807 73.1701 135.458 71.2737C140.108 69.3773 144.084 66.1659 146.88 62.0455C149.677 57.9251 151.17 53.0809 151.17 48.1254C151.162 41.4825 148.478 35.1138 143.707 30.4166C138.935 25.7194 132.466 23.0772 125.718 23.0697Z" fill="#191919"/>
<path opacity="0.5" d="M151.028 48.1253C151.036 54.0235 148.91 59.7315 145.031 64.227C142.642 61.4853 139.679 59.2848 136.345 57.7764C133.011 56.2679 129.385 55.4873 125.716 55.4879C122.047 55.4885 118.421 56.2705 115.088 57.7801C111.754 59.2898 108.792 61.4913 106.404 64.2338C103.77 61.1737 101.926 57.533 101.027 53.6209C100.129 49.7089 100.203 45.6411 101.243 41.7633C102.284 37.8854 104.26 34.3121 107.003 31.3469C109.747 28.3818 113.177 26.1124 117.002 24.7315C120.827 23.3507 124.934 22.8993 128.975 23.4156C133.015 23.9319 136.869 25.4007 140.209 27.6972C143.55 29.9937 146.277 33.0501 148.161 36.6065C150.044 40.163 151.028 44.1145 151.028 48.1253Z" fill="#EDF6FF"/>
<path d="M145.031 64.2271C142.655 66.9887 139.697 69.2078 136.362 70.7301C133.027 72.2523 129.395 73.0412 125.719 73.0419C122.043 73.0425 118.411 72.2549 115.076 70.7338C111.74 69.2128 108.781 66.9947 106.404 64.2339C108.792 61.4914 111.754 59.2898 115.088 57.7802C118.421 56.2706 122.047 55.4886 125.716 55.488C129.385 55.4873 133.011 56.268 136.345 57.7764C139.679 59.2849 142.642 61.4854 145.031 64.2271Z" fill="white"/>
<path d="M125.718 50.8391C131.368 50.8391 135.949 46.3299 135.949 40.7676C135.949 35.2052 131.368 30.6961 125.718 30.6961C120.068 30.6961 115.487 35.2052 115.487 40.7676C115.487 46.3299 120.068 50.8391 125.718 50.8391Z" fill="white"/>
<g opacity="0.4">
<path d="M74.538 143.125C76.2375 143.125 77.6151 141.769 77.6151 140.096C77.6151 138.423 76.2375 137.067 74.538 137.067C72.8386 137.067 71.4609 138.423 71.4609 140.096C71.4609 141.769 72.8386 143.125 74.538 143.125Z" fill="#191919"/>
<path d="M84.163 143.125C85.8625 143.125 87.2401 141.769 87.2401 140.096C87.2401 138.423 85.8625 137.067 84.163 137.067C82.4636 137.067 81.0859 138.423 81.0859 140.096C81.0859 141.769 82.4636 143.125 84.163 143.125Z" fill="#191919"/>
<path d="M93.789 143.125C95.4884 143.125 96.8661 141.769 96.8661 140.096C96.8661 138.423 95.4884 137.067 93.789 137.067C92.0896 137.067 90.7119 138.423 90.7119 140.096C90.7119 141.769 92.0896 143.125 93.789 143.125Z" fill="#191919"/>
<path d="M103.414 143.125C105.113 143.125 106.491 141.769 106.491 140.096C106.491 138.423 105.113 137.067 103.414 137.067C101.715 137.067 100.337 138.423 100.337 140.096C100.337 141.769 101.715 143.125 103.414 143.125Z" fill="#191919"/>
<path d="M113.039 143.125C114.738 143.125 116.116 141.769 116.116 140.096C116.116 138.423 114.738 137.067 113.039 137.067C111.34 137.067 109.962 138.423 109.962 140.096C109.962 141.769 111.34 143.125 113.039 143.125Z" fill="#191919"/>
<path d="M122.665 143.125C124.364 143.125 125.742 141.769 125.742 140.096C125.742 138.423 124.364 137.067 122.665 137.067C120.966 137.067 119.588 138.423 119.588 140.096C119.588 141.769 120.966 143.125 122.665 143.125Z" fill="#191919"/>
<path d="M132.29 143.125C133.989 143.125 135.367 141.769 135.367 140.096C135.367 138.423 133.989 137.067 132.29 137.067C130.591 137.067 129.213 138.423 129.213 140.096C129.213 141.769 130.591 143.125 132.29 143.125Z" fill="#191919"/>
</g>
<g opacity="0.3">
<path d="M77.5904 104.365V105.389H73.6387V104.365H77.5904Z" fill="#191919"/>
<path d="M82.5015 104.365V105.389H78.5498V104.365H82.5015Z" fill="#191919"/>
<path d="M87.4117 104.365V105.389H83.46V104.365H87.4117Z" fill="#191919"/>
<path d="M92.3228 104.365V105.389H88.3711V104.365H92.3228Z" fill="#191919"/>
<path d="M97.2334 104.365V105.389H93.2812V104.365H97.2334Z" fill="#191919"/>
<path d="M106.096 110.145C105.217 110.59 104.238 110.807 103.25 110.777C100.626 110.777 98.4023 108.887 98.4023 105.862C98.4023 102.618 100.691 99.8143 104.242 99.8143C107.026 99.8143 108.898 101.735 108.898 104.366C108.898 106.729 107.554 108.115 106.05 108.115C105.41 108.115 104.818 107.688 104.866 106.729H104.802C104.595 107.144 104.274 107.494 103.876 107.739C103.477 107.984 103.017 108.114 102.547 108.115C101.619 108.115 100.819 107.374 100.819 106.131C100.817 105.64 100.914 105.154 101.104 104.7C101.294 104.246 101.573 103.834 101.926 103.487C102.278 103.14 102.697 102.865 103.158 102.678C103.619 102.491 104.113 102.396 104.611 102.397C105.199 102.389 105.782 102.502 106.323 102.728L105.779 105.579C105.539 106.774 105.731 107.329 106.259 107.343C107.075 107.359 107.987 106.288 107.987 104.461C107.987 102.177 106.595 100.539 104.115 100.539C101.507 100.539 99.3152 102.571 99.3152 105.768C99.3152 108.399 101.059 110.021 103.427 110.021C104.267 110.04 105.098 109.85 105.843 109.47L106.096 110.145ZM105.217 103.341C104.957 103.266 104.687 103.229 104.416 103.231C103.008 103.231 101.873 104.538 101.873 106.066C101.873 106.759 102.225 107.261 102.929 107.261C103.857 107.261 104.704 106.096 104.88 105.119L105.217 103.341Z" fill="#191919"/>
<path d="M113.933 104.365V105.389H109.981V104.365H113.933Z" fill="#191919"/>
<path d="M118.845 104.365V105.389H114.893V104.365H118.845Z" fill="#191919"/>
<path d="M123.755 104.365V105.389H119.804V104.365H123.755Z" fill="#191919"/>
</g>
</g>
<defs>
<clipPath id="clip0_218_2432">
<rect width="386" height="368" fill="white"/>
</clipPath>
</defs>
</svg>
