<svg width="30" height="30" viewBox="0 0 30 30" fill="none" xmlns="http://www.w3.org/2000/svg">
<path d="M12.5344 22C12.2855 22 12.0401 21.942 11.8175 21.8307C11.5949 21.7194 11.4013 21.5578 11.2521 21.3587L7.32056 16.1165C7.19427 15.9481 7.10238 15.7565 7.05014 15.5525C6.9979 15.3486 6.98634 15.1364 7.01612 14.928C7.04589 14.7196 7.11643 14.5191 7.22368 14.338C7.33094 14.1569 7.47282 13.9986 7.64123 13.8723C7.80964 13.746 8.00128 13.6541 8.2052 13.6019C8.40912 13.5497 8.62134 13.5381 8.82972 13.5679C9.03811 13.5976 9.2386 13.6682 9.41973 13.7754C9.60086 13.8827 9.75909 14.0246 9.88539 14.193L12.4575 17.6223L19.0637 7.71303C19.2996 7.35956 19.6663 7.11426 20.0831 7.03104C20.4998 6.94782 20.9326 7.0335 21.2862 7.26924C21.6398 7.50498 21.8853 7.87149 21.9688 8.2882C22.0522 8.70491 21.9668 9.13771 21.7313 9.49146L13.8683 21.2861C13.7261 21.4994 13.5347 21.6755 13.3104 21.7997C13.0861 21.9238 12.8352 21.9923 12.579 21.9995C12.5641 21.9997 12.5492 22 12.5344 22Z" fill="#9DFE01"/>
<circle cx="15" cy="15" r="14" stroke="#9DFE01" stroke-width="2"/>
</svg>
