<svg width="322" height="343" viewBox="0 0 322 343" fill="none" xmlns="http://www.w3.org/2000/svg">
<g clip-path="url(#clip0_214_2195)">
<rect width="322" height="343" fill="white"/>
<path d="M124.714 281.521C118.307 275.615 109.022 272.228 99.24 272.228L98.8627 272.229C92.4197 272.231 86.0917 270.703 80.5258 267.802L79.9466 267.501L80.4131 267.071C82.9386 264.735 85.0473 262.067 86.6655 259.158C85.5162 260.116 84.1455 260.836 82.6503 261.268C81.1551 261.7 79.572 261.833 78.0131 261.657C76.3673 261.482 74.7872 260.975 73.3915 260.176C71.9958 259.377 70.8206 258.306 69.9541 257.043C66.5353 252.085 62.46 245.049 62.46 239.69C62.4653 235.159 63.5265 230.68 65.5759 226.536C67.6254 222.393 70.6181 218.677 74.3633 215.624C76.7344 213.713 78.6283 211.377 79.9215 208.768C81.2147 206.159 81.8782 203.336 81.8687 200.482L81.8668 200.076C81.8662 196.319 82.3798 192.576 83.3963 188.93L83.4995 188.562L83.9233 188.575C86.6558 188.658 89.3898 188.454 92.0688 187.965C89.5559 187.69 87.0976 187.105 84.7637 186.229L84.3078 186.064L84.4625 185.646C95.1269 179.744 119.199 182.8 133.172 154.226C144.502 131.056 184.477 174.794 184.477 200.076C184.477 202.655 181.621 206.064 183.759 207.77C206.872 226.201 190.924 238.037 185.896 249.947C184.703 252.772 187.29 255.874 187.29 258.931C187.29 259.45 187.275 259.986 187.246 260.523L187.201 261.349L186.431 260.891C184.906 259.998 183.493 258.962 182.215 257.8C183.541 260.526 184.165 263.484 184.043 266.455C183.921 269.426 183.055 272.334 181.51 274.966C179.087 279.053 176.744 281.978 174.545 283.661C167.499 289.05 158.416 291.83 149.154 291.433C139.891 291.035 131.149 287.489 124.714 281.521H124.714Z" fill="#FFD233"/>
<path d="M163.411 343C163.568 343 163.72 342.949 163.839 342.857C163.958 342.764 164.036 342.637 164.058 342.497C164.086 342.323 166.81 324.76 164.363 301.418C162.104 279.862 154.847 248.813 133.109 223.313C133.057 223.252 132.992 223.201 132.918 223.162C132.844 223.123 132.762 223.098 132.676 223.088C132.591 223.077 132.504 223.082 132.421 223.102C132.338 223.121 132.26 223.155 132.191 223.202C132.123 223.249 132.066 223.307 132.022 223.373C131.979 223.44 131.951 223.513 131.939 223.59C131.928 223.666 131.933 223.743 131.955 223.818C131.978 223.892 132.016 223.962 132.068 224.023C153.618 249.302 160.816 280.123 163.06 301.528C165.492 324.733 162.789 342.159 162.762 342.332C162.748 342.415 162.755 342.5 162.782 342.58C162.809 342.661 162.854 342.735 162.916 342.798C162.977 342.862 163.053 342.912 163.139 342.947C163.224 342.982 163.317 343 163.411 343V343Z" fill="#3F3D56"/>
<path d="M145.671 259.282C145.809 259.282 145.944 259.243 146.056 259.171C146.168 259.098 146.251 258.996 146.294 258.878C146.337 258.76 146.337 258.634 146.294 258.516C146.251 258.399 146.168 258.296 146.056 258.224C139.862 254.476 133.171 251.431 126.137 249.16C115.147 245.563 98.4346 242.303 81.23 247.197C81.1479 247.221 81.0717 247.258 81.0058 247.307C80.9399 247.357 80.8856 247.418 80.846 247.486C80.8063 247.554 80.7822 247.629 80.7748 247.706C80.7675 247.782 80.7772 247.859 80.8033 247.933C80.8294 248.006 80.8714 248.074 80.927 248.133C80.9825 248.192 81.0505 248.24 81.127 248.275C81.2035 248.311 81.2871 248.332 81.3729 248.338C81.4587 248.345 81.545 248.336 81.627 248.312C98.4792 243.519 114.888 246.725 125.686 250.259C132.608 252.492 139.192 255.485 145.287 259.17C145.398 259.243 145.533 259.282 145.671 259.282Z" fill="#3F3D56"/>
<path d="M175.634 192.577C175.644 192.454 175.61 192.331 175.537 192.226C175.464 192.121 175.356 192.039 175.228 191.992C175.1 191.946 174.959 191.937 174.824 191.966C174.69 191.996 174.57 192.063 174.481 192.157C169.853 197.409 165.974 203.156 162.932 209.263C158.128 218.802 153.286 233.467 157.509 249.158C157.529 249.232 157.565 249.303 157.615 249.365C157.666 249.427 157.73 249.48 157.803 249.52C157.876 249.561 157.958 249.587 158.043 249.599C158.128 249.611 158.215 249.608 158.298 249.59C158.382 249.572 158.461 249.54 158.53 249.495C158.6 249.449 158.659 249.392 158.704 249.327C158.749 249.261 158.779 249.188 158.792 249.112C158.805 249.036 158.802 248.959 158.781 248.884C154.646 233.515 159.406 219.116 164.126 209.744C167.116 203.734 170.93 198.08 175.482 192.912C175.571 192.817 175.624 192.7 175.634 192.577Z" fill="#3F3D56"/>
<path d="M301.91 342.38H249.794L249.57 342.017C248.904 340.937 248.26 339.792 247.659 338.616C242.291 328.343 240.022 316.594 238.02 306.228L236.512 298.415C236.33 297.468 236.467 296.495 236.907 295.619C237.347 294.743 238.069 294.004 238.982 293.497C239.894 292.99 240.955 292.739 242.029 292.774C243.102 292.809 244.14 293.13 245.008 293.695C252.929 298.847 260.852 303.993 268.778 309.134C271.779 311.086 275.207 313.346 278.49 315.787C278.806 314.412 279.138 313.033 279.469 311.673C279.697 310.734 280.234 309.878 281.01 309.213C281.786 308.548 282.767 308.106 283.826 307.942C284.885 307.778 285.975 307.901 286.956 308.294C287.937 308.687 288.764 309.333 289.332 310.149L295.43 318.906C299.877 325.3 303.802 331.602 303.003 338.398C303.007 338.481 303 338.564 302.982 338.645C302.822 339.761 302.525 340.859 302.097 341.917L301.91 342.38Z" fill="#F0F0F0"/>
<path d="M277.629 159.241L267.571 125.965C267.14 124.556 266.107 123.356 264.695 122.622C263.282 121.888 261.604 121.68 260.021 122.043C259.202 122.23 258.435 122.565 257.766 123.027C257.096 123.488 256.539 124.066 256.128 124.727C255.717 125.387 255.461 126.115 255.375 126.866C255.289 127.618 255.375 128.377 255.628 129.098L267.262 163.377L273.348 184.473C272.462 185.078 271.805 185.912 271.468 186.862C271.13 187.813 271.128 188.833 271.462 189.784C271.795 190.735 272.448 191.572 273.332 192.18C274.216 192.788 275.288 193.138 276.402 193.182C277.517 193.226 278.619 192.963 279.56 192.428C280.501 191.893 281.235 191.112 281.662 190.191C282.089 189.27 282.189 188.254 281.947 187.28C281.706 186.307 281.135 185.424 280.312 184.751L277.629 159.241Z" fill="#FFCBA5"/>
<path d="M192.993 152.074L223.554 131.052C224.845 130.158 225.692 128.846 225.911 127.398C226.13 125.951 225.704 124.485 224.724 123.316C224.217 122.712 223.578 122.206 222.845 121.829C222.112 121.453 221.301 121.214 220.462 121.126C219.622 121.039 218.772 121.106 217.962 121.322C217.152 121.538 216.4 121.899 215.751 122.384L184.756 145.091L165.271 158.179C164.307 157.678 163.193 157.454 162.082 157.538C160.971 157.622 159.915 158.01 159.059 158.65C158.203 159.289 157.588 160.148 157.297 161.11C157.006 162.073 157.054 163.092 157.434 164.029C157.814 164.967 158.507 165.777 159.42 166.349C160.333 166.922 161.421 167.23 162.536 167.231C163.651 167.232 164.74 166.926 165.654 166.355C166.568 165.783 167.263 164.974 167.645 164.037L192.993 152.074Z" fill="#FFCBA5"/>
<path d="M217.902 156.907L216.555 183.798L258.851 175.582C255.251 164.776 252.803 162.933 255.508 155.413L217.902 156.907Z" fill="#FFCBA5"/>
<path d="M243.908 107.607H229.815L223.762 116.865L220.879 116.722C219.468 116.653 218.057 116.841 216.73 117.276C215.404 117.71 214.191 118.382 213.164 119.25C212.138 120.118 211.321 121.164 210.763 122.323C210.204 123.483 209.916 124.733 209.916 125.995L213.469 130.918C213.469 130.918 207.115 140.817 216.268 145.687C216.268 145.687 214.636 154.863 216.268 154.765C217.901 154.666 221.662 152.799 217.901 154.666C214.14 156.533 214.421 156.784 214.908 157.219L215.394 157.654L254.937 163.589C254.937 163.589 256.094 156.737 256.218 155.515C256.343 154.292 255.507 157.28 256.343 154.292C257.179 151.305 258.432 152.425 257.179 151.305C255.925 150.184 265.301 136.303 261.449 130.918L267.625 125.534C267.625 120.369 258.344 116.181 252.566 116.181H251.826L243.908 107.607Z" fill="#6A00BF"/>
<path d="M209.952 332.013H204.248L201.534 312.347L209.953 312.347L209.952 332.013Z" fill="#A0616A"/>
<path d="M192.735 339.536C192.738 340.108 192.993 340.655 193.444 341.059C193.896 341.463 194.507 341.692 195.146 341.696H205.884L206.217 341.079L207.736 338.278L208.324 341.079L208.454 341.696H212.504L212.447 341.075L211.367 329.499L209.954 329.421L203.849 329.098L202.35 329.016V332.472C201.212 333.554 192.282 337.644 192.735 339.536Z" fill="#2F2E41"/>
<path d="M294.727 318.658L289.93 321.417L275.744 306.189L282.825 302.119L294.727 318.658Z" fill="#A0616A"/>
<path d="M284.801 333.311C285.149 333.79 285.695 334.127 286.319 334.249C286.943 334.371 287.596 334.267 288.136 333.961L297.166 328.768L297.073 328.089L296.655 324.999L298.845 327.07L299.328 327.526L302.734 325.567L302.31 325.073L294.394 315.859L293.159 316.477L287.83 319.158L286.519 319.814L288.611 322.721C288.309 324.181 283.275 331.939 284.801 333.311Z" fill="#2F2E41"/>
<path d="M321.336 342.74L144.707 342.894C144.53 342.893 144.361 342.83 144.237 342.718C144.113 342.606 144.043 342.455 144.043 342.298C144.043 342.14 144.113 341.989 144.237 341.877C144.361 341.765 144.53 341.702 144.707 341.701L321.336 341.548C321.513 341.548 321.681 341.612 321.806 341.723C321.93 341.835 322 341.986 322 342.144C322 342.301 321.93 342.452 321.806 342.564C321.681 342.676 321.513 342.739 321.336 342.74Z" fill="#CACACA"/>
<path d="M258.188 172.544C258.188 172.544 231.151 185.327 216.851 176.606C216.851 176.606 213.723 190.148 212.47 191.268C211.216 192.389 209.219 192.877 210.635 194.127C212.052 195.377 212.84 197.065 210.148 199.209C207.456 201.353 204.771 200.672 207.367 202.88C209.963 205.088 199.516 259.244 199.516 259.244C199.516 259.244 201.188 309.607 199.516 311.13C197.845 312.654 195.611 312.995 197.773 314.878C199.934 316.762 199.934 315.301 199.934 317.899V320.497L200.923 323.079H214.49C214.49 323.079 217.764 319.679 214.49 316.727C211.216 313.774 215.487 312.966 216.485 310.195C217.484 307.425 219.155 310.413 217.484 307.425C215.812 304.437 215.01 305.005 214.993 303.04C214.977 301.075 239.63 224.136 239.63 224.136L242.616 266.721L278.532 313.359L289.103 306.271C289.103 306.271 281.407 296.586 283.206 295.255C285.006 293.923 277.902 292.253 280.142 290.752C282.382 289.25 276.989 287.736 279.022 285.745C281.054 283.754 276.221 278.736 273.421 278.736C270.62 278.736 266.69 270.371 266.69 270.371L272.557 204.291L258.188 172.544Z" fill="#2F2E41"/>
<path d="M229.532 80.4254C229.341 80.65 227.816 80.5291 225.983 80.2898C222.359 79.8168 221.865 80.3789 219.155 82.5819C215.23 85.7731 217.462 105.237 215.533 109.455L214.91 109.865C216.146 109.654 217.36 109.35 218.539 108.957C219.205 107.079 219.873 105.195 220.545 103.318C221.179 104.779 221.578 106.312 221.73 107.872C222.663 107.544 223.59 106.74 227.489 105.661C229.452 104.471 243.654 103.274 245.48 102.75C250.113 88.6582 242.646 82.9592 229.532 80.4254Z" fill="#2F2E41"/>
<path d="M234.327 102.156C241.822 102.156 247.898 96.725 247.898 90.0252C247.898 83.3253 241.822 77.894 234.327 77.894C226.831 77.894 220.755 83.3253 220.755 90.0252C220.755 96.725 226.831 102.156 234.327 102.156Z" fill="#FFCBA5"/>
<path d="M242.871 79.3562C242.106 79.2554 241.37 79.0247 240.702 78.6765C240.371 78.4978 240.103 78.2395 239.928 77.931C239.754 77.6225 239.68 77.2764 239.715 76.9321C239.882 76.0701 240.972 75.5555 241.949 75.6079C242.922 75.7332 243.846 76.0675 244.642 76.5821C244.555 75.7491 244.156 74.9666 243.512 74.3602C242.867 73.7538 242.013 73.3587 241.086 73.2384C242.371 73.1765 243.707 73.1219 244.895 73.5636C246.083 74.0054 247.073 75.0991 246.859 76.2333C248.856 76.0032 250.826 77.2473 251.651 78.8897C252.476 80.532 252.312 82.4608 251.653 84.162C251.588 84.4225 251.461 84.6675 251.281 84.8803C251.101 85.0932 250.872 85.2689 250.609 85.3956C249.937 85.6237 249.213 85.2413 248.631 84.8644C245.588 82.8951 242.819 80.6089 240.381 78.0541" fill="#2F2E41"/>
<path d="M248.789 102.922C248.214 103.164 248.513 104.065 248.066 104.469C247.872 104.639 247.638 104.77 247.381 104.85C247.314 104.098 247.118 103.36 246.8 102.661C246.741 102.534 246.645 102.392 246.495 102.403C246.319 102.422 246.273 102.627 246.269 102.78C246.234 103.54 246.046 104.288 245.714 104.988C245.709 104.995 245.705 105.006 245.701 105.014C245.571 105.01 245.438 105.006 245.312 105.003C244.343 104.969 242.195 102.743 241.719 103.498C243.399 100.835 245.446 96.8307 245.76 93.7867C245.868 93.1494 245.815 92.4985 245.605 91.8819C245.495 91.5751 245.289 91.303 245.011 91.0977C244.734 90.8925 244.396 90.7628 244.038 90.7241C243.862 90.7169 243.685 90.7446 243.522 90.8054C243.359 90.8661 243.213 90.9583 243.095 91.0753C242.976 91.1924 242.888 91.3314 242.836 91.4825C242.785 91.6335 242.772 91.7929 242.797 91.9491L242.555 91.9193C240.307 90.2834 242.245 87.441 239.63 86.3169C238.744 85.9359 233.32 87.2095 232.363 86.9854C232.343 86.0844 232.137 85.1945 231.757 84.3598C231.699 84.2328 231.603 84.0908 231.452 84.1021C231.277 84.1207 231.231 84.3261 231.227 84.4793C231.191 85.2389 231.003 85.9867 230.671 86.6866C229.345 86.5185 227.996 86.5819 226.697 86.8734C225.552 87.1423 224.466 87.6054 223.317 87.8519C222.749 88.0075 222.151 88.0579 221.561 88.0001C220.97 87.9423 220.399 87.7775 219.882 87.5157C218.424 86.6418 218.169 84.7071 218.896 83.2803C219.422 82.3648 220.133 81.5443 220.994 80.8601C221.65 80.2924 222.331 79.7471 223.012 79.2018C223.622 78.7125 224.232 78.2232 224.842 77.734C225.61 77.0879 226.428 76.4913 227.291 75.9487C228.667 75.142 230.214 74.5953 231.836 74.3423C233.458 74.0892 235.12 74.1351 236.721 74.4771C238.644 74.8879 241.213 74.309 242.972 75.112C243.892 75.5341 245.927 77.1513 246.733 77.7265C248.797 79.1943 247.4 77.9983 249.658 78.847C255.041 80.8706 252.661 101.293 248.789 102.922Z" fill="#2F2E41"/>
<path d="M98.5183 191.466C145.002 191.466 182.685 157.783 182.685 116.234C182.685 74.6839 145.002 41.0012 98.5183 41.0012C52.0343 41.0012 14.3516 74.6839 14.3516 116.234C14.3516 157.783 52.0343 191.466 98.5183 191.466Z" fill="#1F486B"/>
<path d="M98.5186 192.217C51.6457 192.217 13.5117 158.131 13.5117 116.234C13.5117 74.3363 51.6457 40.2502 98.5186 40.2502C145.391 40.2502 183.525 74.3363 183.525 116.234C183.525 158.131 145.391 192.217 98.5186 192.217ZM98.5186 41.7522C52.5723 41.7522 15.192 75.1645 15.192 116.234C15.192 157.303 52.5723 190.715 98.5186 190.715C144.465 190.715 181.845 157.303 181.845 116.234C181.845 75.1645 144.465 41.7522 98.5186 41.7522Z" fill="#F4F4F5"/>
<path d="M87.0363 155.389C85.5828 155.389 84.1494 155.086 82.8495 154.505C81.5495 153.924 80.4189 153.08 79.5471 152.04L56.5851 124.674C55.8475 123.795 55.3108 122.794 55.0057 121.73C54.7006 120.665 54.6331 119.557 54.807 118.469C54.9809 117.381 55.3929 116.335 56.0193 115.389C56.6457 114.444 57.4744 113.618 58.458 112.958C59.4416 112.299 60.5609 111.819 61.7519 111.547C62.9429 111.274 64.1823 111.213 65.3994 111.369C66.6165 111.524 67.7874 111.893 68.8453 112.452C69.9032 113.012 70.8274 113.753 71.565 114.632L86.5875 132.535L125.171 80.8039C126.549 78.9586 128.69 77.678 131.124 77.2436C133.559 76.8091 136.086 77.2564 138.151 78.4871C140.216 79.7178 141.65 81.6311 142.138 83.8065C142.626 85.9819 142.127 88.2414 140.751 90.0881L94.8272 151.662C93.9964 152.775 92.8791 153.695 91.5688 154.343C90.2586 154.991 88.7937 155.348 87.2969 155.386C87.21 155.387 87.1231 155.389 87.0363 155.389Z" fill="#9DFE01"/>
<path d="M185.235 45.7016C185.469 44.2633 183.784 42.8534 181.471 42.5526C179.158 42.2517 177.093 43.1738 176.858 44.6122C176.624 46.0505 178.31 47.4604 180.623 47.7613C182.936 48.0621 185.001 47.1399 185.235 45.7016Z" fill="#990ECA"/>
<path d="M212.775 43.2998C213.009 41.8614 211.324 40.4516 209.011 40.1507C206.698 39.8499 204.633 40.772 204.399 42.2104C204.164 43.6487 205.85 45.0586 208.163 45.3594C210.476 45.6602 212.541 44.7381 212.775 43.2998Z" fill="#3F3D56"/>
<path d="M177.693 25.7722C177.927 24.3338 176.242 22.924 173.929 22.6231C171.616 22.3223 169.551 23.2444 169.317 24.6828C169.082 26.1211 170.768 27.531 173.081 27.8318C175.394 28.1326 177.459 27.2105 177.693 25.7722Z" fill="#FF6584"/>
<path d="M165.726 17.6086C165.737 16.2882 164.913 15.2121 163.886 15.2051C162.858 15.1982 162.016 16.263 162.005 17.5835C161.993 18.9039 162.817 19.98 163.845 19.9869C164.873 19.9939 165.715 18.9291 165.726 17.6086Z" fill="#990ECA"/>
<path d="M161.668 2.40354C161.68 1.08309 160.856 0.00701783 159.828 7.17598e-05C158.8 -0.00687431 157.958 1.05794 157.947 2.37839C157.936 3.69884 158.76 4.77492 159.787 4.78186C160.815 4.78881 161.657 3.724 161.668 2.40354Z" fill="#3F3D56"/>
<path d="M193.227 29.1636C193.238 27.8431 192.414 26.767 191.387 26.7601C190.359 26.7531 189.517 27.818 189.506 29.1384C189.494 30.4589 190.318 31.5349 191.346 31.5419C192.374 31.5488 193.216 30.484 193.227 29.1636Z" fill="#990ECA"/>
<path d="M179.917 35.1033C179.929 33.7828 179.105 32.7068 178.077 32.6998C177.049 32.6929 176.207 33.7577 176.196 35.0781C176.185 36.3986 177.009 37.4746 178.037 37.4816C179.064 37.4885 179.906 36.4237 179.917 35.1033Z" fill="#FF6584"/>
<path d="M198.444 46.0811C198.455 44.7606 197.631 43.6845 196.603 43.6776C195.576 43.6706 194.734 44.7354 194.722 46.0559C194.711 47.3764 195.535 48.4524 196.563 48.4594C197.591 48.4663 198.433 47.4015 198.444 46.0811Z" fill="#3F3D56"/>
<path d="M27.2889 223.929C27.523 222.491 25.8376 221.081 23.5245 220.78C21.2113 220.48 19.1463 221.402 18.9122 222.84C18.6781 224.278 20.3635 225.688 22.6766 225.989C24.9898 226.29 27.0548 225.368 27.2889 223.929Z" fill="#990ECA"/>
<path d="M54.8289 221.527C55.063 220.089 53.3777 218.679 51.0645 218.378C48.7513 218.077 46.6864 219 46.4522 220.438C46.2181 221.876 47.9035 223.286 50.2166 223.587C52.5298 223.888 54.5948 222.966 54.8289 221.527Z" fill="#3F3D56"/>
<path d="M19.7469 204C19.981 202.562 18.2956 201.152 15.9825 200.851C13.6693 200.55 11.6043 201.472 11.3702 202.911C11.1361 204.349 12.8215 205.759 15.1346 206.06C17.4478 206.36 19.5128 205.438 19.7469 204Z" fill="#FF6584"/>
<path d="M7.77982 195.836C7.79099 194.516 6.96696 193.44 5.9393 193.433C4.91164 193.426 4.06948 194.491 4.05831 195.811C4.04714 197.132 4.87119 198.208 5.89885 198.215C6.92651 198.222 7.76865 197.157 7.77982 195.836Z" fill="#990ECA"/>
<path d="M3.72121 180.631C3.73238 179.311 2.90835 178.235 1.88069 178.228C0.853028 178.221 0.0108894 179.286 -0.000281325 180.606C-0.0114521 181.926 0.812575 183.002 1.84024 183.009C2.8679 183.016 3.71004 181.952 3.72121 180.631Z" fill="#3F3D56"/>
<path d="M35.2798 207.391C35.291 206.071 34.4669 204.995 33.4393 204.988C32.4116 204.981 31.5695 206.046 31.5583 207.366C31.5471 208.687 32.3712 209.763 33.3988 209.77C34.4265 209.777 35.2686 208.712 35.2798 207.391Z" fill="#990ECA"/>
<path d="M21.9712 213.331C21.9824 212.011 21.1584 210.935 20.1307 210.928C19.103 210.921 18.2609 211.985 18.2497 213.306C18.2385 214.626 19.0626 215.702 20.0903 215.709C21.1179 215.716 21.9601 214.651 21.9712 213.331Z" fill="#FF6584"/>
<path d="M40.4976 224.309C40.5087 222.988 39.6847 221.912 38.657 221.905C37.6294 221.898 36.7873 222.963 36.7761 224.284C36.7649 225.604 37.5889 226.68 38.6166 226.687C39.6442 226.694 40.4864 225.629 40.4976 224.309Z" fill="#3F3D56"/>
</g>
<defs>
<clipPath id="clip0_214_2195">
<rect width="322" height="343" fill="white"/>
</clipPath>
</defs>
</svg>
