<svg width="82" height="82" viewBox="0 0 82 82" fill="none" xmlns="http://www.w3.org/2000/svg">
<path fill-rule="evenodd" clip-rule="evenodd" d="M60.0482 26.5728C61.1942 27.7142 61.1979 29.5684 60.0566 30.7144L35.3803 55.491C34.239 56.6369 32.3848 56.6407 31.2388 55.4994L22.2395 46.5375C21.0935 45.3962 21.0896 43.5419 22.2309 42.3959C23.3722 41.2498 25.2265 41.2459 26.3725 42.3872L33.2968 49.2828L55.9065 26.5812C57.0479 25.4352 58.9022 25.4314 60.0482 26.5728Z" fill="#9DFE01"/>
<path fill-rule="evenodd" clip-rule="evenodd" d="M40.8293 8.35714C25.3057 8.35714 12.2825 19.1969 8.93949 33.7181L8.93948 33.7181C8.3953 36.0817 8.10714 38.5454 8.10714 41.0793C8.10714 59.1375 22.7711 73.8015 40.8293 73.8015C58.8875 73.8015 73.5515 59.1375 73.5515 41.0793C73.5515 23.0211 58.8875 8.35714 40.8293 8.35714ZM3.23165 32.404C7.17275 15.2849 22.515 2.5 40.8293 2.5C62.1224 2.5 79.4086 19.7863 79.4086 41.0793C79.4086 62.3724 62.1224 79.6586 40.8293 79.6586C19.5363 79.6586 2.25 62.3724 2.25 41.0793C2.25 38.0999 2.58898 35.1955 3.23165 32.404Z" fill="#9DFE01"/>
</svg>
